G04 (created by PCBNEW (2013-mar-13)-testing) date Fri 01 Nov 2013 04:53:57 PM PDT*
%MOIN*%
G04 Gerber Fmt 3.4, Leading zero omitted, Abs format*
%FSLAX34Y34*%
G01*
G70*
G90*
G04 APERTURE LIST*
%ADD10C,0.005906*%
%ADD11C,0.010000*%
%ADD12C,0.011811*%
%ADD13C,0.012000*%
%ADD14C,0.015000*%
%ADD15C,0.006000*%
%ADD16C,0.008000*%
G04 APERTURE END LIST*
G54D10*
G54D11*
X13259Y-16814D02*
X13426Y-16814D01*
X13497Y-17076D02*
X13259Y-17076D01*
X13259Y-16576D01*
X13497Y-16576D01*
X13664Y-16576D02*
X13997Y-17076D01*
X13997Y-16576D02*
X13664Y-17076D01*
X14116Y-16576D02*
X14402Y-16576D01*
X14259Y-17076D02*
X14259Y-16576D01*
X14950Y-17076D02*
X14950Y-16576D01*
X15140Y-16576D01*
X15188Y-16600D01*
X15211Y-16623D01*
X15235Y-16671D01*
X15235Y-16742D01*
X15211Y-16790D01*
X15188Y-16814D01*
X15140Y-16838D01*
X14950Y-16838D01*
X15402Y-16576D02*
X15521Y-17076D01*
X15616Y-16719D01*
X15711Y-17076D01*
X15830Y-16576D01*
X16307Y-17076D02*
X16140Y-16838D01*
X16021Y-17076D02*
X16021Y-16576D01*
X16211Y-16576D01*
X16259Y-16600D01*
X16283Y-16623D01*
X16307Y-16671D01*
X16307Y-16742D01*
X16283Y-16790D01*
X16259Y-16814D01*
X16211Y-16838D01*
X16021Y-16838D01*
X16854Y-16576D02*
X17188Y-16576D01*
X16973Y-17076D01*
X17378Y-16885D02*
X17759Y-16885D01*
X18259Y-17076D02*
X17973Y-17076D01*
X18116Y-17076D02*
X18116Y-16576D01*
X18069Y-16647D01*
X18021Y-16695D01*
X17973Y-16719D01*
X18450Y-16623D02*
X18473Y-16600D01*
X18521Y-16576D01*
X18640Y-16576D01*
X18688Y-16600D01*
X18711Y-16623D01*
X18735Y-16671D01*
X18735Y-16719D01*
X18711Y-16790D01*
X18426Y-17076D01*
X18735Y-17076D01*
X18878Y-16576D02*
X19045Y-17076D01*
X19211Y-16576D01*
G54D12*
X52967Y-24240D02*
X52376Y-24240D01*
X52798Y-24043D01*
X52376Y-23846D01*
X52967Y-23846D01*
X52910Y-23227D02*
X52939Y-23255D01*
X52967Y-23340D01*
X52967Y-23396D01*
X52939Y-23480D01*
X52882Y-23537D01*
X52826Y-23565D01*
X52714Y-23593D01*
X52629Y-23593D01*
X52517Y-23565D01*
X52460Y-23537D01*
X52404Y-23480D01*
X52376Y-23396D01*
X52376Y-23340D01*
X52404Y-23255D01*
X52432Y-23227D01*
X52376Y-23058D02*
X52376Y-22721D01*
X52967Y-22890D02*
X52376Y-22890D01*
X52967Y-21737D02*
X52685Y-21934D01*
X52967Y-22074D02*
X52376Y-22074D01*
X52376Y-21849D01*
X52404Y-21793D01*
X52432Y-21765D01*
X52489Y-21737D01*
X52573Y-21737D01*
X52629Y-21765D01*
X52657Y-21793D01*
X52685Y-21849D01*
X52685Y-22074D01*
X52798Y-21512D02*
X52798Y-21231D01*
X52967Y-21568D02*
X52376Y-21371D01*
X52967Y-21174D01*
X52967Y-20977D02*
X52376Y-20977D01*
X52967Y-20640D01*
X52376Y-20640D01*
X52967Y-20359D02*
X52376Y-20359D01*
X52376Y-20218D01*
X52404Y-20134D01*
X52460Y-20078D01*
X52517Y-20049D01*
X52629Y-20021D01*
X52714Y-20021D01*
X52826Y-20049D01*
X52882Y-20078D01*
X52939Y-20134D01*
X52967Y-20218D01*
X52967Y-20359D01*
X52939Y-19346D02*
X52967Y-19262D01*
X52967Y-19121D01*
X52939Y-19065D01*
X52910Y-19037D01*
X52854Y-19009D01*
X52798Y-19009D01*
X52742Y-19037D01*
X52714Y-19065D01*
X52685Y-19121D01*
X52657Y-19234D01*
X52629Y-19290D01*
X52601Y-19318D01*
X52545Y-19346D01*
X52489Y-19346D01*
X52432Y-19318D01*
X52404Y-19290D01*
X52376Y-19234D01*
X52376Y-19093D01*
X52404Y-19009D01*
X52685Y-18643D02*
X52967Y-18643D01*
X52376Y-18840D02*
X52685Y-18643D01*
X52376Y-18447D01*
X52967Y-18250D02*
X52376Y-18250D01*
X52967Y-17912D01*
X52376Y-17912D01*
X52910Y-17294D02*
X52939Y-17322D01*
X52967Y-17406D01*
X52967Y-17462D01*
X52939Y-17547D01*
X52882Y-17603D01*
X52826Y-17631D01*
X52714Y-17659D01*
X52629Y-17659D01*
X52517Y-17631D01*
X52460Y-17603D01*
X52404Y-17547D01*
X52376Y-17462D01*
X52376Y-17406D01*
X52404Y-17322D01*
X52432Y-17294D01*
X52376Y-16675D02*
X52967Y-16478D01*
X52376Y-16281D01*
X52376Y-15972D02*
X52376Y-15916D01*
X52404Y-15859D01*
X52432Y-15831D01*
X52489Y-15803D01*
X52601Y-15775D01*
X52742Y-15775D01*
X52854Y-15803D01*
X52910Y-15831D01*
X52939Y-15859D01*
X52967Y-15916D01*
X52967Y-15972D01*
X52939Y-16028D01*
X52910Y-16056D01*
X52854Y-16084D01*
X52742Y-16112D01*
X52601Y-16112D01*
X52489Y-16084D01*
X52432Y-16056D01*
X52404Y-16028D01*
X52376Y-15972D01*
X52910Y-15522D02*
X52939Y-15494D01*
X52967Y-15522D01*
X52939Y-15550D01*
X52910Y-15522D01*
X52967Y-15522D01*
X52967Y-14931D02*
X52967Y-15269D01*
X52967Y-15100D02*
X52376Y-15100D01*
X52460Y-15156D01*
X52517Y-15213D01*
X52545Y-15269D01*
X53518Y-23283D02*
X53912Y-23171D01*
X53630Y-23058D01*
X53912Y-22946D01*
X53518Y-22833D01*
X53518Y-22665D02*
X53912Y-22552D01*
X53630Y-22440D01*
X53912Y-22327D01*
X53518Y-22215D01*
X53518Y-22046D02*
X53912Y-21934D01*
X53630Y-21821D01*
X53912Y-21709D01*
X53518Y-21596D01*
X53855Y-21371D02*
X53883Y-21343D01*
X53912Y-21371D01*
X53883Y-21399D01*
X53855Y-21371D01*
X53912Y-21371D01*
X53912Y-21090D02*
X53518Y-21090D01*
X53321Y-21090D02*
X53349Y-21118D01*
X53377Y-21090D01*
X53349Y-21062D01*
X53321Y-21090D01*
X53377Y-21090D01*
X53912Y-20724D02*
X53883Y-20781D01*
X53855Y-20809D01*
X53799Y-20837D01*
X53630Y-20837D01*
X53574Y-20809D01*
X53546Y-20781D01*
X53518Y-20724D01*
X53518Y-20640D01*
X53546Y-20584D01*
X53574Y-20556D01*
X53630Y-20528D01*
X53799Y-20528D01*
X53855Y-20556D01*
X53883Y-20584D01*
X53912Y-20640D01*
X53912Y-20724D01*
X53912Y-20274D02*
X53518Y-20274D01*
X53630Y-20274D02*
X53574Y-20246D01*
X53546Y-20218D01*
X53518Y-20162D01*
X53518Y-20106D01*
X53912Y-19824D02*
X53883Y-19881D01*
X53855Y-19909D01*
X53799Y-19937D01*
X53630Y-19937D01*
X53574Y-19909D01*
X53546Y-19881D01*
X53518Y-19824D01*
X53518Y-19740D01*
X53546Y-19684D01*
X53574Y-19656D01*
X53630Y-19628D01*
X53799Y-19628D01*
X53855Y-19656D01*
X53883Y-19684D01*
X53912Y-19740D01*
X53912Y-19824D01*
X53912Y-19121D02*
X53321Y-19121D01*
X53883Y-19121D02*
X53912Y-19178D01*
X53912Y-19290D01*
X53883Y-19346D01*
X53855Y-19375D01*
X53799Y-19403D01*
X53630Y-19403D01*
X53574Y-19375D01*
X53546Y-19346D01*
X53518Y-19290D01*
X53518Y-19178D01*
X53546Y-19121D01*
X53883Y-18615D02*
X53912Y-18671D01*
X53912Y-18784D01*
X53883Y-18840D01*
X53827Y-18868D01*
X53602Y-18868D01*
X53546Y-18840D01*
X53518Y-18784D01*
X53518Y-18671D01*
X53546Y-18615D01*
X53602Y-18587D01*
X53658Y-18587D01*
X53715Y-18868D01*
X53912Y-18250D02*
X53883Y-18306D01*
X53855Y-18334D01*
X53799Y-18362D01*
X53630Y-18362D01*
X53574Y-18334D01*
X53546Y-18306D01*
X53518Y-18250D01*
X53518Y-18165D01*
X53546Y-18109D01*
X53574Y-18081D01*
X53630Y-18053D01*
X53799Y-18053D01*
X53855Y-18081D01*
X53883Y-18109D01*
X53912Y-18165D01*
X53912Y-18250D01*
X53855Y-17800D02*
X53883Y-17772D01*
X53912Y-17800D01*
X53883Y-17828D01*
X53855Y-17800D01*
X53912Y-17800D01*
X53883Y-17265D02*
X53912Y-17322D01*
X53912Y-17434D01*
X53883Y-17490D01*
X53855Y-17519D01*
X53799Y-17547D01*
X53630Y-17547D01*
X53574Y-17519D01*
X53546Y-17490D01*
X53518Y-17434D01*
X53518Y-17322D01*
X53546Y-17265D01*
X53912Y-16928D02*
X53883Y-16984D01*
X53855Y-17012D01*
X53799Y-17040D01*
X53630Y-17040D01*
X53574Y-17012D01*
X53546Y-16984D01*
X53518Y-16928D01*
X53518Y-16844D01*
X53546Y-16787D01*
X53574Y-16759D01*
X53630Y-16731D01*
X53799Y-16731D01*
X53855Y-16759D01*
X53883Y-16787D01*
X53912Y-16844D01*
X53912Y-16928D01*
X53912Y-16478D02*
X53518Y-16478D01*
X53574Y-16478D02*
X53546Y-16450D01*
X53518Y-16394D01*
X53518Y-16309D01*
X53546Y-16253D01*
X53602Y-16225D01*
X53912Y-16225D01*
X53602Y-16225D02*
X53546Y-16197D01*
X53518Y-16141D01*
X53518Y-16056D01*
X53546Y-16000D01*
X53602Y-15972D01*
X53912Y-15972D01*
G54D11*
X45702Y-23226D02*
X45702Y-22726D01*
X45821Y-22726D01*
X45892Y-22750D01*
X45940Y-22797D01*
X45964Y-22845D01*
X45988Y-22940D01*
X45988Y-23011D01*
X45964Y-23107D01*
X45940Y-23154D01*
X45892Y-23202D01*
X45821Y-23226D01*
X45702Y-23226D01*
X46202Y-23226D02*
X46202Y-22726D01*
X46702Y-22750D02*
X46654Y-22726D01*
X46583Y-22726D01*
X46511Y-22750D01*
X46464Y-22797D01*
X46440Y-22845D01*
X46416Y-22940D01*
X46416Y-23011D01*
X46440Y-23107D01*
X46464Y-23154D01*
X46511Y-23202D01*
X46583Y-23226D01*
X46630Y-23226D01*
X46702Y-23202D01*
X46726Y-23178D01*
X46726Y-23011D01*
X46630Y-23011D01*
X46940Y-23226D02*
X46940Y-22726D01*
X47107Y-22726D02*
X47392Y-22726D01*
X47250Y-23226D02*
X47250Y-22726D01*
X47535Y-23083D02*
X47773Y-23083D01*
X47488Y-23226D02*
X47654Y-22726D01*
X47821Y-23226D01*
X48226Y-23226D02*
X47988Y-23226D01*
X47988Y-22726D01*
X48773Y-23226D02*
X48773Y-22726D01*
X49107Y-22726D02*
X49202Y-22726D01*
X49250Y-22750D01*
X49297Y-22797D01*
X49321Y-22892D01*
X49321Y-23059D01*
X49297Y-23154D01*
X49250Y-23202D01*
X49202Y-23226D01*
X49107Y-23226D01*
X49059Y-23202D01*
X49011Y-23154D01*
X48988Y-23059D01*
X48988Y-22892D01*
X49011Y-22797D01*
X49059Y-22750D01*
X49107Y-22726D01*
X34916Y-23083D02*
X35154Y-23083D01*
X34869Y-23226D02*
X35035Y-22726D01*
X35202Y-23226D01*
X35369Y-23226D02*
X35369Y-22726D01*
X35654Y-23226D01*
X35654Y-22726D01*
X35869Y-23083D02*
X36107Y-23083D01*
X35821Y-23226D02*
X35988Y-22726D01*
X36154Y-23226D01*
X36559Y-23226D02*
X36321Y-23226D01*
X36321Y-22726D01*
X36821Y-22726D02*
X36916Y-22726D01*
X36964Y-22750D01*
X37011Y-22797D01*
X37035Y-22892D01*
X37035Y-23059D01*
X37011Y-23154D01*
X36964Y-23202D01*
X36916Y-23226D01*
X36821Y-23226D01*
X36773Y-23202D01*
X36726Y-23154D01*
X36702Y-23059D01*
X36702Y-22892D01*
X36726Y-22797D01*
X36773Y-22750D01*
X36821Y-22726D01*
X37511Y-22750D02*
X37464Y-22726D01*
X37392Y-22726D01*
X37321Y-22750D01*
X37273Y-22797D01*
X37250Y-22845D01*
X37226Y-22940D01*
X37226Y-23011D01*
X37250Y-23107D01*
X37273Y-23154D01*
X37321Y-23202D01*
X37392Y-23226D01*
X37440Y-23226D01*
X37511Y-23202D01*
X37535Y-23178D01*
X37535Y-23011D01*
X37440Y-23011D01*
X38130Y-23226D02*
X38130Y-22726D01*
X38369Y-23226D02*
X38369Y-22726D01*
X38654Y-23226D01*
X38654Y-22726D01*
X38892Y-23226D02*
X38892Y-22726D01*
X39083Y-22726D01*
X39130Y-22750D01*
X39154Y-22773D01*
X39178Y-22821D01*
X39178Y-22892D01*
X39154Y-22940D01*
X39130Y-22964D01*
X39083Y-22988D01*
X38892Y-22988D01*
X39392Y-22726D02*
X39392Y-23130D01*
X39416Y-23178D01*
X39440Y-23202D01*
X39488Y-23226D01*
X39583Y-23226D01*
X39630Y-23202D01*
X39654Y-23178D01*
X39678Y-23130D01*
X39678Y-22726D01*
X39845Y-22726D02*
X40130Y-22726D01*
X39988Y-23226D02*
X39988Y-22726D01*
X46809Y-18726D02*
X46809Y-18226D01*
X47047Y-18726D02*
X47047Y-18226D01*
X47333Y-18726D01*
X47333Y-18226D01*
X47500Y-18226D02*
X47785Y-18226D01*
X47642Y-18726D02*
X47642Y-18226D01*
X48214Y-18726D02*
X47928Y-18726D01*
X48071Y-18726D02*
X48071Y-18226D01*
X48023Y-18297D01*
X47976Y-18345D01*
X47928Y-18369D01*
X36809Y-18726D02*
X36809Y-18226D01*
X37047Y-18726D02*
X37047Y-18226D01*
X37333Y-18726D01*
X37333Y-18226D01*
X37500Y-18226D02*
X37785Y-18226D01*
X37642Y-18726D02*
X37642Y-18226D01*
X38047Y-18226D02*
X38095Y-18226D01*
X38142Y-18250D01*
X38166Y-18273D01*
X38190Y-18321D01*
X38214Y-18416D01*
X38214Y-18535D01*
X38190Y-18630D01*
X38166Y-18678D01*
X38142Y-18702D01*
X38095Y-18726D01*
X38047Y-18726D01*
X38000Y-18702D01*
X37976Y-18678D01*
X37952Y-18630D01*
X37928Y-18535D01*
X37928Y-18416D01*
X37952Y-18321D01*
X37976Y-18273D01*
X38000Y-18250D01*
X38047Y-18226D01*
X12833Y-27476D02*
X12666Y-27238D01*
X12547Y-27476D02*
X12547Y-26976D01*
X12738Y-26976D01*
X12785Y-27000D01*
X12809Y-27023D01*
X12833Y-27071D01*
X12833Y-27142D01*
X12809Y-27190D01*
X12785Y-27214D01*
X12738Y-27238D01*
X12547Y-27238D01*
X13047Y-27214D02*
X13214Y-27214D01*
X13285Y-27476D02*
X13047Y-27476D01*
X13047Y-26976D01*
X13285Y-26976D01*
X13476Y-27452D02*
X13547Y-27476D01*
X13666Y-27476D01*
X13714Y-27452D01*
X13738Y-27428D01*
X13761Y-27380D01*
X13761Y-27333D01*
X13738Y-27285D01*
X13714Y-27261D01*
X13666Y-27238D01*
X13571Y-27214D01*
X13523Y-27190D01*
X13500Y-27166D01*
X13476Y-27119D01*
X13476Y-27071D01*
X13500Y-27023D01*
X13523Y-27000D01*
X13571Y-26976D01*
X13690Y-26976D01*
X13761Y-27000D01*
X13976Y-27214D02*
X14142Y-27214D01*
X14214Y-27476D02*
X13976Y-27476D01*
X13976Y-26976D01*
X14214Y-26976D01*
X14357Y-26976D02*
X14642Y-26976D01*
X14500Y-27476D02*
X14500Y-26976D01*
X15190Y-27476D02*
X15190Y-26976D01*
X15309Y-26976D01*
X15380Y-27000D01*
X15428Y-27047D01*
X15452Y-27095D01*
X15476Y-27190D01*
X15476Y-27261D01*
X15452Y-27357D01*
X15428Y-27404D01*
X15380Y-27452D01*
X15309Y-27476D01*
X15190Y-27476D01*
X15690Y-27476D02*
X15690Y-26976D01*
X15904Y-27452D02*
X15976Y-27476D01*
X16095Y-27476D01*
X16142Y-27452D01*
X16166Y-27428D01*
X16190Y-27380D01*
X16190Y-27333D01*
X16166Y-27285D01*
X16142Y-27261D01*
X16095Y-27238D01*
X16000Y-27214D01*
X15952Y-27190D01*
X15928Y-27166D01*
X15904Y-27119D01*
X15904Y-27071D01*
X15928Y-27023D01*
X15952Y-27000D01*
X16000Y-26976D01*
X16119Y-26976D01*
X16190Y-27000D01*
X16380Y-27333D02*
X16619Y-27333D01*
X16333Y-27476D02*
X16500Y-26976D01*
X16666Y-27476D01*
X17000Y-27214D02*
X17071Y-27238D01*
X17095Y-27261D01*
X17119Y-27309D01*
X17119Y-27380D01*
X17095Y-27428D01*
X17071Y-27452D01*
X17023Y-27476D01*
X16833Y-27476D01*
X16833Y-26976D01*
X17000Y-26976D01*
X17047Y-27000D01*
X17071Y-27023D01*
X17095Y-27071D01*
X17095Y-27119D01*
X17071Y-27166D01*
X17047Y-27190D01*
X17000Y-27214D01*
X16833Y-27214D01*
X17571Y-27476D02*
X17333Y-27476D01*
X17333Y-26976D01*
X17738Y-27214D02*
X17904Y-27214D01*
X17976Y-27476D02*
X17738Y-27476D01*
X17738Y-26976D01*
X17976Y-26976D01*
G54D13*
X17450Y-22600D02*
X14650Y-22600D01*
X14650Y-22600D02*
X14650Y-21800D01*
X14650Y-21800D02*
X17450Y-21800D01*
X17450Y-21800D02*
X17450Y-22600D01*
X17450Y-22400D02*
X17250Y-22600D01*
G54D14*
X40500Y-11750D02*
X40500Y-17750D01*
X34500Y-11750D02*
X34500Y-17750D01*
X35500Y-11750D02*
X35500Y-11450D01*
X35500Y-11450D02*
X39500Y-11450D01*
X39500Y-11450D02*
X39500Y-11750D01*
X34500Y-15750D02*
X40500Y-15750D01*
X34500Y-11750D02*
X40500Y-11750D01*
X34500Y-17750D02*
X40500Y-17750D01*
X50500Y-11750D02*
X50500Y-17750D01*
X44500Y-11750D02*
X44500Y-17750D01*
X45500Y-11750D02*
X45500Y-11450D01*
X45500Y-11450D02*
X49500Y-11450D01*
X49500Y-11450D02*
X49500Y-11750D01*
X44500Y-15750D02*
X50500Y-15750D01*
X44500Y-11750D02*
X50500Y-11750D01*
X44500Y-17750D02*
X50500Y-17750D01*
G54D15*
X16200Y-25250D02*
X16200Y-26250D01*
X16200Y-26250D02*
X14200Y-26250D01*
X14200Y-26250D02*
X14200Y-25250D01*
X14200Y-25250D02*
X16200Y-25250D01*
G54D14*
X13250Y-10260D02*
X18750Y-10260D01*
X18750Y-10260D02*
X18750Y-16010D01*
X18750Y-16010D02*
X13250Y-16010D01*
X13250Y-16010D02*
X13250Y-10260D01*
X43500Y-23700D02*
X43500Y-27300D01*
X43500Y-27300D02*
X51500Y-27300D01*
X51500Y-27300D02*
X51500Y-23700D01*
X51500Y-23700D02*
X43500Y-23700D01*
X45500Y-27500D02*
X45000Y-28100D01*
X45000Y-28100D02*
X46000Y-28100D01*
X46000Y-28100D02*
X45500Y-27500D01*
X33500Y-23600D02*
X33500Y-27200D01*
X33500Y-27200D02*
X41500Y-27200D01*
X41500Y-27200D02*
X41500Y-23600D01*
X41500Y-23600D02*
X33500Y-23600D01*
X35500Y-27400D02*
X35000Y-28000D01*
X35000Y-28000D02*
X36000Y-28000D01*
X36000Y-28000D02*
X35500Y-27400D01*
G54D13*
X13500Y-19500D02*
X13900Y-19500D01*
X18500Y-19500D02*
X18100Y-19500D01*
X18100Y-19000D02*
X18100Y-20000D01*
X18100Y-20000D02*
X13900Y-20000D01*
X13900Y-20000D02*
X13900Y-19000D01*
X13900Y-19000D02*
X18100Y-19000D01*
X13900Y-19200D02*
X14100Y-19000D01*
G54D14*
X26500Y-26800D02*
G75*
G03X26000Y-26300I-500J0D01*
G74*
G01*
X26000Y-26300D02*
G75*
G03X25500Y-26800I0J-500D01*
G74*
G01*
X23500Y-26800D02*
X25500Y-26800D01*
X28500Y-26800D02*
X26500Y-26800D01*
X28500Y-26800D02*
X28500Y-11800D01*
X28500Y-11800D02*
X23500Y-11800D01*
X23500Y-11800D02*
X23500Y-26800D01*
G54D16*
X15983Y-21592D02*
X15964Y-21611D01*
X15907Y-21630D01*
X15869Y-21630D01*
X15811Y-21611D01*
X15773Y-21573D01*
X15754Y-21535D01*
X15735Y-21459D01*
X15735Y-21402D01*
X15754Y-21326D01*
X15773Y-21288D01*
X15811Y-21250D01*
X15869Y-21230D01*
X15907Y-21230D01*
X15964Y-21250D01*
X15983Y-21269D01*
X16364Y-21630D02*
X16135Y-21630D01*
X16250Y-21630D02*
X16250Y-21230D01*
X16211Y-21288D01*
X16173Y-21326D01*
X16135Y-21345D01*
X33604Y-12930D02*
X33604Y-12530D01*
X33757Y-12530D01*
X33795Y-12550D01*
X33814Y-12569D01*
X33833Y-12607D01*
X33833Y-12664D01*
X33814Y-12702D01*
X33795Y-12721D01*
X33757Y-12740D01*
X33604Y-12740D01*
X34214Y-12930D02*
X33985Y-12930D01*
X34100Y-12930D02*
X34100Y-12530D01*
X34061Y-12588D01*
X34023Y-12626D01*
X33985Y-12645D01*
X43604Y-12880D02*
X43604Y-12480D01*
X43757Y-12480D01*
X43795Y-12500D01*
X43814Y-12519D01*
X43833Y-12557D01*
X43833Y-12614D01*
X43814Y-12652D01*
X43795Y-12671D01*
X43757Y-12690D01*
X43604Y-12690D01*
X43985Y-12519D02*
X44004Y-12500D01*
X44042Y-12480D01*
X44138Y-12480D01*
X44176Y-12500D01*
X44195Y-12519D01*
X44214Y-12557D01*
X44214Y-12595D01*
X44195Y-12652D01*
X43966Y-12880D01*
X44214Y-12880D01*
X14904Y-24930D02*
X14904Y-24530D01*
X15057Y-24530D01*
X15095Y-24550D01*
X15114Y-24569D01*
X15133Y-24607D01*
X15133Y-24664D01*
X15114Y-24702D01*
X15095Y-24721D01*
X15057Y-24740D01*
X14904Y-24740D01*
X15266Y-24530D02*
X15514Y-24530D01*
X15380Y-24683D01*
X15438Y-24683D01*
X15476Y-24702D01*
X15495Y-24721D01*
X15514Y-24759D01*
X15514Y-24854D01*
X15495Y-24892D01*
X15476Y-24911D01*
X15438Y-24930D01*
X15323Y-24930D01*
X15285Y-24911D01*
X15266Y-24892D01*
X12354Y-12280D02*
X12354Y-11880D01*
X12507Y-11880D01*
X12545Y-11900D01*
X12564Y-11919D01*
X12583Y-11957D01*
X12583Y-12014D01*
X12564Y-12052D01*
X12545Y-12071D01*
X12507Y-12090D01*
X12354Y-12090D01*
X12926Y-12014D02*
X12926Y-12280D01*
X12830Y-11861D02*
X12735Y-12147D01*
X12983Y-12147D01*
X42654Y-24180D02*
X42654Y-23780D01*
X42807Y-23780D01*
X42845Y-23800D01*
X42864Y-23819D01*
X42883Y-23857D01*
X42883Y-23914D01*
X42864Y-23952D01*
X42845Y-23971D01*
X42807Y-23990D01*
X42654Y-23990D01*
X43245Y-23780D02*
X43054Y-23780D01*
X43035Y-23971D01*
X43054Y-23952D01*
X43092Y-23933D01*
X43188Y-23933D01*
X43226Y-23952D01*
X43245Y-23971D01*
X43264Y-24009D01*
X43264Y-24104D01*
X43245Y-24142D01*
X43226Y-24161D01*
X43188Y-24180D01*
X43092Y-24180D01*
X43054Y-24161D01*
X43035Y-24142D01*
G54D11*
X45385Y-24019D02*
X45404Y-24000D01*
X45442Y-23980D01*
X45538Y-23980D01*
X45576Y-24000D01*
X45595Y-24019D01*
X45614Y-24057D01*
X45614Y-24095D01*
X45595Y-24152D01*
X45366Y-24380D01*
X45614Y-24380D01*
X49423Y-24380D02*
X49195Y-24380D01*
X49309Y-24380D02*
X49309Y-23980D01*
X49271Y-24038D01*
X49233Y-24076D01*
X49195Y-24095D01*
X49671Y-23980D02*
X49709Y-23980D01*
X49747Y-24000D01*
X49766Y-24019D01*
X49785Y-24057D01*
X49804Y-24133D01*
X49804Y-24228D01*
X49785Y-24304D01*
X49766Y-24342D01*
X49747Y-24361D01*
X49709Y-24380D01*
X49671Y-24380D01*
X49633Y-24361D01*
X49614Y-24342D01*
X49595Y-24304D01*
X49576Y-24228D01*
X49576Y-24133D01*
X49595Y-24057D01*
X49614Y-24019D01*
X49633Y-24000D01*
X49671Y-23980D01*
X49423Y-27080D02*
X49500Y-27080D01*
X49538Y-27061D01*
X49557Y-27042D01*
X49595Y-26985D01*
X49614Y-26909D01*
X49614Y-26757D01*
X49595Y-26719D01*
X49576Y-26700D01*
X49538Y-26680D01*
X49461Y-26680D01*
X49423Y-26700D01*
X49404Y-26719D01*
X49385Y-26757D01*
X49385Y-26852D01*
X49404Y-26890D01*
X49423Y-26909D01*
X49461Y-26928D01*
X49538Y-26928D01*
X49576Y-26909D01*
X49595Y-26890D01*
X49614Y-26852D01*
G54D16*
X32604Y-24080D02*
X32604Y-23680D01*
X32757Y-23680D01*
X32795Y-23700D01*
X32814Y-23719D01*
X32833Y-23757D01*
X32833Y-23814D01*
X32814Y-23852D01*
X32795Y-23871D01*
X32757Y-23890D01*
X32604Y-23890D01*
X33176Y-23680D02*
X33100Y-23680D01*
X33061Y-23700D01*
X33042Y-23719D01*
X33004Y-23776D01*
X32985Y-23852D01*
X32985Y-24004D01*
X33004Y-24042D01*
X33023Y-24061D01*
X33061Y-24080D01*
X33138Y-24080D01*
X33176Y-24061D01*
X33195Y-24042D01*
X33214Y-24004D01*
X33214Y-23909D01*
X33195Y-23871D01*
X33176Y-23852D01*
X33138Y-23833D01*
X33061Y-23833D01*
X33023Y-23852D01*
X33004Y-23871D01*
X32985Y-23909D01*
G54D11*
X35385Y-23919D02*
X35404Y-23900D01*
X35442Y-23880D01*
X35538Y-23880D01*
X35576Y-23900D01*
X35595Y-23919D01*
X35614Y-23957D01*
X35614Y-23995D01*
X35595Y-24052D01*
X35366Y-24280D01*
X35614Y-24280D01*
X39423Y-24280D02*
X39195Y-24280D01*
X39309Y-24280D02*
X39309Y-23880D01*
X39271Y-23938D01*
X39233Y-23976D01*
X39195Y-23995D01*
X39671Y-23880D02*
X39709Y-23880D01*
X39747Y-23900D01*
X39766Y-23919D01*
X39785Y-23957D01*
X39804Y-24033D01*
X39804Y-24128D01*
X39785Y-24204D01*
X39766Y-24242D01*
X39747Y-24261D01*
X39709Y-24280D01*
X39671Y-24280D01*
X39633Y-24261D01*
X39614Y-24242D01*
X39595Y-24204D01*
X39576Y-24128D01*
X39576Y-24033D01*
X39595Y-23957D01*
X39614Y-23919D01*
X39633Y-23900D01*
X39671Y-23880D01*
X39423Y-26980D02*
X39500Y-26980D01*
X39538Y-26961D01*
X39557Y-26942D01*
X39595Y-26885D01*
X39614Y-26809D01*
X39614Y-26657D01*
X39595Y-26619D01*
X39576Y-26600D01*
X39538Y-26580D01*
X39461Y-26580D01*
X39423Y-26600D01*
X39404Y-26619D01*
X39385Y-26657D01*
X39385Y-26752D01*
X39404Y-26790D01*
X39423Y-26809D01*
X39461Y-26828D01*
X39538Y-26828D01*
X39576Y-26809D01*
X39595Y-26790D01*
X39614Y-26752D01*
G54D16*
X15933Y-18780D02*
X15800Y-18590D01*
X15704Y-18780D02*
X15704Y-18380D01*
X15857Y-18380D01*
X15895Y-18400D01*
X15914Y-18419D01*
X15933Y-18457D01*
X15933Y-18514D01*
X15914Y-18552D01*
X15895Y-18571D01*
X15857Y-18590D01*
X15704Y-18590D01*
X16314Y-18780D02*
X16085Y-18780D01*
X16200Y-18780D02*
X16200Y-18380D01*
X16161Y-18438D01*
X16123Y-18476D01*
X16085Y-18495D01*
X26780Y-19354D02*
X27104Y-19354D01*
X27142Y-19335D01*
X27161Y-19316D01*
X27180Y-19278D01*
X27180Y-19202D01*
X27161Y-19164D01*
X27142Y-19145D01*
X27104Y-19126D01*
X26780Y-19126D01*
X27180Y-18726D02*
X27180Y-18954D01*
X27180Y-18840D02*
X26780Y-18840D01*
X26838Y-18878D01*
X26876Y-18916D01*
X26895Y-18954D01*
X25416Y-21471D02*
X25416Y-21280D01*
X25530Y-21509D02*
X25130Y-21376D01*
X25530Y-21242D01*
X25530Y-20880D02*
X25340Y-21014D01*
X25530Y-21109D02*
X25130Y-21109D01*
X25130Y-20957D01*
X25150Y-20919D01*
X25169Y-20900D01*
X25207Y-20880D01*
X25264Y-20880D01*
X25302Y-20900D01*
X25321Y-20919D01*
X25340Y-20957D01*
X25340Y-21109D01*
X25530Y-20709D02*
X25130Y-20709D01*
X25130Y-20614D01*
X25150Y-20557D01*
X25188Y-20519D01*
X25226Y-20500D01*
X25302Y-20480D01*
X25359Y-20480D01*
X25435Y-20500D01*
X25473Y-20519D01*
X25511Y-20557D01*
X25530Y-20614D01*
X25530Y-20709D01*
X25130Y-20309D02*
X25454Y-20309D01*
X25492Y-20290D01*
X25511Y-20271D01*
X25530Y-20233D01*
X25530Y-20157D01*
X25511Y-20119D01*
X25492Y-20100D01*
X25454Y-20080D01*
X25130Y-20080D01*
X25530Y-19890D02*
X25130Y-19890D01*
X25530Y-19699D02*
X25130Y-19699D01*
X25530Y-19471D01*
X25130Y-19471D01*
X25130Y-19204D02*
X25130Y-19128D01*
X25150Y-19090D01*
X25188Y-19052D01*
X25264Y-19033D01*
X25397Y-19033D01*
X25473Y-19052D01*
X25511Y-19090D01*
X25530Y-19128D01*
X25530Y-19204D01*
X25511Y-19242D01*
X25473Y-19280D01*
X25397Y-19299D01*
X25264Y-19299D01*
X25188Y-19280D01*
X25150Y-19242D01*
X25130Y-19204D01*
X25530Y-18557D02*
X25130Y-18557D01*
X25530Y-18328D01*
X25130Y-18328D01*
X25416Y-18157D02*
X25416Y-17966D01*
X25530Y-18195D02*
X25130Y-18061D01*
X25530Y-17928D01*
X25530Y-17795D02*
X25130Y-17795D01*
X25530Y-17566D01*
X25130Y-17566D01*
X25130Y-17299D02*
X25130Y-17223D01*
X25150Y-17185D01*
X25188Y-17147D01*
X25264Y-17128D01*
X25397Y-17128D01*
X25473Y-17147D01*
X25511Y-17185D01*
X25530Y-17223D01*
X25530Y-17299D01*
X25511Y-17338D01*
X25473Y-17376D01*
X25397Y-17395D01*
X25264Y-17395D01*
X25188Y-17376D01*
X25150Y-17338D01*
X25130Y-17299D01*
M02*
