M48
;DRILL file {Pcbnew (2013-mar-13)-testing} date Fri 01 Nov 2013 04:54:11 PM PDT
;FORMAT={2:4/ absolute / inch / suppress trailing zeros}
FMAT,2
INCH,LZ
T1C0.025
T2C0.032
T3C0.035
T4C0.039
T5C0.040
T6C0.063
T7C0.079
T8C0.106
T9C0.120
T10C0.124
%
G90
G05
M72
T1
X026095Y-024904
X026783Y-024975
X027632Y-012208
X032726Y-022846
X038882Y-023831
X042676Y-0219
T2
X0135Y-0195
X01505Y-0222
X01705Y-0222
X0185Y-0195
T3
X0365Y-01475
X0375Y-01475
X0465Y-01475
X0475Y-01475
T4
X023Y-0123
X023Y-0133
X023Y-0143
X023Y-0153
X023Y-0163
X023Y-0173
X023Y-0183
X023Y-0193
X023Y-0203
X023Y-0213
X023Y-0223
X023Y-0233
X023Y-0243
X023Y-0253
X023Y-0263
X029Y-0123
X029Y-0133
X029Y-0143
X029Y-0153
X029Y-0163
X029Y-0173
X029Y-0183
X029Y-0193
X029Y-0203
X029Y-0213
X029Y-0223
X029Y-0233
X029Y-0243
X029Y-0253
X029Y-0263
X0355Y-0249
X0355Y-0259
X0365Y-0249
X0365Y-0259
X0375Y-0249
X0375Y-0259
X0385Y-0249
X0385Y-0259
X0395Y-0249
X0395Y-0259
X0455Y-025
X0455Y-026
X0465Y-025
X0465Y-026
X0475Y-025
X0475Y-026
X0485Y-025
X0485Y-026
X0495Y-025
X0495Y-026
T5
X0147Y-02575
X0157Y-02575
T6
X016Y-01144
T7
X0355Y-01275
X0355Y-01675
X0395Y-01275
X0455Y-01275
X0455Y-01675
X0495Y-01275
T8
X01423Y-01223
X016Y-01262
X01777Y-01223
T9
X011Y-011
X011Y-029
X054Y-011
X054Y-029
T10
X016Y-01498
T0
M30
