G04 (created by PCBNEW (2013-mar-13)-testing) date Fri 01 Nov 2013 04:53:57 PM PDT*
%MOIN*%
G04 Gerber Fmt 3.4, Leading zero omitted, Abs format*
%FSLAX34Y34*%
G01*
G70*
G90*
G04 APERTURE LIST*
%ADD10C,0.005906*%
%ADD11C,0.055000*%
%ADD12C,0.120000*%
%ADD13R,0.065000X0.065000*%
%ADD14C,0.065000*%
%ADD15R,0.060000X0.060000*%
%ADD16C,0.060000*%
%ADD17C,0.076000*%
%ADD18C,0.140000*%
%ADD19C,0.160000*%
%ADD20R,0.070000X0.070000*%
%ADD21C,0.070000*%
%ADD22R,0.069000X0.060000*%
%ADD23C,0.069000*%
%ADD24C,0.130000*%
%ADD25C,0.035000*%
%ADD26C,0.020000*%
%ADD27C,0.010000*%
G04 APERTURE END LIST*
G54D10*
G54D11*
X17050Y-22200D03*
X15050Y-22200D03*
G54D12*
X35500Y-12750D03*
X39500Y-12750D03*
G54D13*
X37500Y-14750D03*
G54D14*
X36500Y-14750D03*
G54D12*
X35500Y-16750D03*
X45500Y-12750D03*
X49500Y-12750D03*
G54D13*
X47500Y-14750D03*
G54D14*
X46500Y-14750D03*
G54D12*
X45500Y-16750D03*
G54D15*
X15700Y-25750D03*
G54D16*
X14700Y-25750D03*
G54D17*
X16000Y-11440D03*
G54D18*
X16000Y-12620D03*
G54D19*
X16000Y-14980D03*
G54D18*
X14230Y-12230D03*
X17770Y-12230D03*
G54D20*
X45500Y-26000D03*
G54D21*
X45500Y-25000D03*
X46500Y-26000D03*
X46500Y-25000D03*
X47500Y-26000D03*
X47500Y-25000D03*
X48500Y-26000D03*
X48500Y-25000D03*
X49500Y-26000D03*
X49500Y-25000D03*
G54D20*
X35500Y-25900D03*
G54D21*
X35500Y-24900D03*
X36500Y-25900D03*
X36500Y-24900D03*
X37500Y-25900D03*
X37500Y-24900D03*
X38500Y-25900D03*
X38500Y-24900D03*
X39500Y-25900D03*
X39500Y-24900D03*
G54D16*
X13500Y-19500D03*
X18500Y-19500D03*
G54D22*
X29000Y-26300D03*
G54D23*
X29000Y-25300D03*
X29000Y-24300D03*
X29000Y-23300D03*
X29000Y-22300D03*
X29000Y-21300D03*
X29000Y-20300D03*
X29000Y-19300D03*
X29000Y-18300D03*
X29000Y-17300D03*
X29000Y-16300D03*
X29000Y-15300D03*
X29000Y-14300D03*
X29000Y-13300D03*
X29000Y-12300D03*
X23000Y-12300D03*
X23000Y-13300D03*
X23000Y-14300D03*
X23000Y-15300D03*
X23000Y-16300D03*
X23000Y-17300D03*
X23000Y-18300D03*
X23000Y-19300D03*
X23000Y-20300D03*
X23000Y-21300D03*
X23000Y-22300D03*
X23000Y-23300D03*
X23000Y-24300D03*
X23000Y-25300D03*
X23000Y-26300D03*
G54D24*
X11000Y-11000D03*
X54000Y-11000D03*
X11000Y-29000D03*
X54000Y-29000D03*
G54D25*
X27631Y-12207D03*
X26783Y-24975D03*
X26094Y-24904D03*
X38882Y-23831D03*
X32725Y-22846D03*
X42675Y-21900D03*
G54D26*
X33555Y-23955D02*
X35500Y-25900D01*
X33555Y-15633D02*
X33555Y-23955D01*
X29362Y-11441D02*
X33555Y-15633D01*
X28398Y-11441D02*
X29362Y-11441D01*
X27631Y-12207D02*
X28398Y-11441D01*
X33961Y-23361D02*
X35500Y-24900D01*
X33961Y-15615D02*
X33961Y-23361D01*
X29484Y-11139D02*
X33961Y-15615D01*
X28160Y-11139D02*
X29484Y-11139D01*
X23000Y-16300D02*
X28160Y-11139D01*
X35949Y-26450D02*
X36500Y-25900D01*
X35064Y-26450D02*
X35949Y-26450D01*
X33100Y-24486D02*
X35064Y-26450D01*
X33100Y-15604D02*
X33100Y-24486D01*
X29243Y-11746D02*
X33100Y-15604D01*
X28623Y-11746D02*
X29243Y-11746D01*
X23070Y-17300D02*
X28623Y-11746D01*
X23000Y-17300D02*
X23070Y-17300D01*
X26783Y-22083D02*
X26783Y-24975D01*
X23000Y-18300D02*
X26783Y-22083D01*
X26094Y-22394D02*
X26094Y-24904D01*
X23000Y-19300D02*
X26094Y-22394D01*
X38500Y-24213D02*
X38500Y-24900D01*
X38882Y-23831D02*
X38500Y-24213D01*
X48647Y-26852D02*
X49500Y-26000D01*
X44940Y-26852D02*
X48647Y-26852D01*
X42300Y-24212D02*
X44940Y-26852D01*
X42300Y-18615D02*
X42300Y-24212D01*
X37613Y-13928D02*
X42300Y-18615D01*
X33122Y-13928D02*
X37613Y-13928D01*
X30033Y-10838D02*
X33122Y-13928D01*
X24461Y-10838D02*
X30033Y-10838D01*
X23000Y-12300D02*
X24461Y-10838D01*
X38638Y-26761D02*
X39500Y-25900D01*
X34943Y-26761D02*
X38638Y-26761D01*
X32538Y-24356D02*
X34943Y-26761D01*
X32538Y-23838D02*
X32538Y-24356D01*
X29000Y-20300D02*
X32538Y-23838D01*
X32725Y-21025D02*
X32725Y-22846D01*
X29000Y-17300D02*
X32725Y-21025D01*
X46947Y-26552D02*
X47500Y-26000D01*
X45064Y-26552D02*
X46947Y-26552D01*
X42675Y-24163D02*
X45064Y-26552D01*
X42675Y-21900D02*
X42675Y-24163D01*
X40051Y-17827D02*
X37500Y-15275D01*
X40051Y-26127D02*
X40051Y-17827D01*
X39115Y-27064D02*
X40051Y-26127D01*
X33764Y-27064D02*
X39115Y-27064D01*
X29000Y-22300D02*
X33764Y-27064D01*
X37500Y-14750D02*
X37500Y-15275D01*
X17986Y-14606D02*
X16000Y-12620D01*
X17986Y-21286D02*
X17986Y-14606D01*
X23000Y-26300D02*
X17986Y-21286D01*
X49500Y-17750D02*
X46500Y-14750D01*
X49500Y-25000D02*
X49500Y-17750D01*
X23406Y-25706D02*
X23551Y-25706D01*
X23000Y-25300D02*
X23406Y-25706D01*
X26593Y-25706D02*
X29000Y-23300D01*
X23551Y-25706D02*
X26593Y-25706D01*
X16000Y-14980D02*
X16000Y-21703D01*
X17451Y-21703D02*
X16000Y-21703D01*
X22598Y-26849D02*
X17451Y-21703D01*
X23230Y-26849D02*
X22598Y-26849D01*
X23551Y-26528D02*
X23230Y-26849D01*
X23551Y-25706D02*
X23551Y-26528D01*
X15546Y-21703D02*
X15050Y-22200D01*
X16000Y-21703D02*
X15546Y-21703D01*
X39500Y-17750D02*
X39500Y-24900D01*
X36500Y-14750D02*
X39500Y-17750D01*
X14700Y-24550D02*
X17050Y-22200D01*
X14700Y-25750D02*
X14700Y-24550D01*
G54D10*
G36*
X39801Y-24159D02*
X39666Y-24101D01*
X39347Y-24098D01*
X39052Y-24217D01*
X39041Y-24225D01*
X39020Y-24385D01*
X39500Y-24864D01*
X39505Y-24859D01*
X39540Y-24894D01*
X39535Y-24900D01*
X39540Y-24905D01*
X39505Y-24940D01*
X39500Y-24935D01*
X39020Y-25414D01*
X39041Y-25574D01*
X39095Y-25597D01*
X39076Y-25616D01*
X39000Y-25800D01*
X39000Y-25800D01*
X38924Y-25617D01*
X38783Y-25476D01*
X38599Y-25400D01*
X38599Y-25400D01*
X38782Y-25324D01*
X38801Y-25305D01*
X38817Y-25347D01*
X38825Y-25358D01*
X38985Y-25379D01*
X39464Y-24900D01*
X38985Y-24420D01*
X38825Y-24441D01*
X38802Y-24495D01*
X38783Y-24476D01*
X38750Y-24462D01*
X38750Y-24317D01*
X38910Y-24156D01*
X38946Y-24156D01*
X39066Y-24106D01*
X39157Y-24015D01*
X39207Y-23896D01*
X39207Y-23766D01*
X39158Y-23647D01*
X39066Y-23555D01*
X38947Y-23506D01*
X38817Y-23506D01*
X38698Y-23555D01*
X38607Y-23646D01*
X38557Y-23766D01*
X38557Y-23802D01*
X38323Y-24036D01*
X38269Y-24117D01*
X38250Y-24213D01*
X38250Y-24462D01*
X38217Y-24475D01*
X38076Y-24616D01*
X38000Y-24800D01*
X38000Y-24800D01*
X37924Y-24617D01*
X37783Y-24476D01*
X37599Y-24400D01*
X37400Y-24399D01*
X37217Y-24475D01*
X37076Y-24616D01*
X37000Y-24800D01*
X37000Y-24800D01*
X36961Y-24706D01*
X36961Y-15246D01*
X36500Y-14785D01*
X36464Y-14820D01*
X36464Y-14750D01*
X36003Y-14288D01*
X35846Y-14306D01*
X35726Y-14589D01*
X35723Y-14898D01*
X35839Y-15183D01*
X35846Y-15194D01*
X36003Y-15211D01*
X36464Y-14750D01*
X36464Y-14820D01*
X36038Y-15246D01*
X36056Y-15403D01*
X36339Y-15523D01*
X36648Y-15526D01*
X36933Y-15410D01*
X36944Y-15403D01*
X36961Y-15246D01*
X36961Y-24706D01*
X36924Y-24617D01*
X36783Y-24476D01*
X36599Y-24400D01*
X36400Y-24399D01*
X36250Y-24462D01*
X36250Y-16601D01*
X36136Y-16325D01*
X35925Y-16114D01*
X35649Y-16000D01*
X35351Y-15999D01*
X35075Y-16113D01*
X34864Y-16324D01*
X34750Y-16600D01*
X34749Y-16898D01*
X34863Y-17174D01*
X35074Y-17385D01*
X35350Y-17499D01*
X35648Y-17500D01*
X35924Y-17386D01*
X36135Y-17175D01*
X36249Y-16899D01*
X36250Y-16601D01*
X36250Y-24462D01*
X36217Y-24475D01*
X36076Y-24616D01*
X36000Y-24800D01*
X36000Y-24800D01*
X35924Y-24617D01*
X35783Y-24476D01*
X35599Y-24400D01*
X35400Y-24399D01*
X35367Y-24413D01*
X34211Y-23257D01*
X34211Y-15615D01*
X34192Y-15519D01*
X34192Y-15519D01*
X34170Y-15487D01*
X34137Y-15438D01*
X34137Y-15438D01*
X29788Y-11088D01*
X29929Y-11088D01*
X32945Y-14104D01*
X33027Y-14159D01*
X33027Y-14159D01*
X33122Y-14178D01*
X36047Y-14178D01*
X36038Y-14253D01*
X36500Y-14714D01*
X36961Y-14253D01*
X36952Y-14178D01*
X37510Y-14178D01*
X37606Y-14275D01*
X37145Y-14275D01*
X37090Y-14297D01*
X37088Y-14298D01*
X36996Y-14288D01*
X36535Y-14750D01*
X36996Y-15211D01*
X37088Y-15201D01*
X37090Y-15202D01*
X37145Y-15225D01*
X37204Y-15225D01*
X37250Y-15225D01*
X37250Y-15275D01*
X37269Y-15370D01*
X37323Y-15451D01*
X39801Y-17930D01*
X39801Y-24159D01*
X39801Y-24159D01*
G37*
G54D27*
X39801Y-24159D02*
X39666Y-24101D01*
X39347Y-24098D01*
X39052Y-24217D01*
X39041Y-24225D01*
X39020Y-24385D01*
X39500Y-24864D01*
X39505Y-24859D01*
X39540Y-24894D01*
X39535Y-24900D01*
X39540Y-24905D01*
X39505Y-24940D01*
X39500Y-24935D01*
X39020Y-25414D01*
X39041Y-25574D01*
X39095Y-25597D01*
X39076Y-25616D01*
X39000Y-25800D01*
X39000Y-25800D01*
X38924Y-25617D01*
X38783Y-25476D01*
X38599Y-25400D01*
X38599Y-25400D01*
X38782Y-25324D01*
X38801Y-25305D01*
X38817Y-25347D01*
X38825Y-25358D01*
X38985Y-25379D01*
X39464Y-24900D01*
X38985Y-24420D01*
X38825Y-24441D01*
X38802Y-24495D01*
X38783Y-24476D01*
X38750Y-24462D01*
X38750Y-24317D01*
X38910Y-24156D01*
X38946Y-24156D01*
X39066Y-24106D01*
X39157Y-24015D01*
X39207Y-23896D01*
X39207Y-23766D01*
X39158Y-23647D01*
X39066Y-23555D01*
X38947Y-23506D01*
X38817Y-23506D01*
X38698Y-23555D01*
X38607Y-23646D01*
X38557Y-23766D01*
X38557Y-23802D01*
X38323Y-24036D01*
X38269Y-24117D01*
X38250Y-24213D01*
X38250Y-24462D01*
X38217Y-24475D01*
X38076Y-24616D01*
X38000Y-24800D01*
X38000Y-24800D01*
X37924Y-24617D01*
X37783Y-24476D01*
X37599Y-24400D01*
X37400Y-24399D01*
X37217Y-24475D01*
X37076Y-24616D01*
X37000Y-24800D01*
X37000Y-24800D01*
X36961Y-24706D01*
X36961Y-15246D01*
X36500Y-14785D01*
X36464Y-14820D01*
X36464Y-14750D01*
X36003Y-14288D01*
X35846Y-14306D01*
X35726Y-14589D01*
X35723Y-14898D01*
X35839Y-15183D01*
X35846Y-15194D01*
X36003Y-15211D01*
X36464Y-14750D01*
X36464Y-14820D01*
X36038Y-15246D01*
X36056Y-15403D01*
X36339Y-15523D01*
X36648Y-15526D01*
X36933Y-15410D01*
X36944Y-15403D01*
X36961Y-15246D01*
X36961Y-24706D01*
X36924Y-24617D01*
X36783Y-24476D01*
X36599Y-24400D01*
X36400Y-24399D01*
X36250Y-24462D01*
X36250Y-16601D01*
X36136Y-16325D01*
X35925Y-16114D01*
X35649Y-16000D01*
X35351Y-15999D01*
X35075Y-16113D01*
X34864Y-16324D01*
X34750Y-16600D01*
X34749Y-16898D01*
X34863Y-17174D01*
X35074Y-17385D01*
X35350Y-17499D01*
X35648Y-17500D01*
X35924Y-17386D01*
X36135Y-17175D01*
X36249Y-16899D01*
X36250Y-16601D01*
X36250Y-24462D01*
X36217Y-24475D01*
X36076Y-24616D01*
X36000Y-24800D01*
X36000Y-24800D01*
X35924Y-24617D01*
X35783Y-24476D01*
X35599Y-24400D01*
X35400Y-24399D01*
X35367Y-24413D01*
X34211Y-23257D01*
X34211Y-15615D01*
X34192Y-15519D01*
X34192Y-15519D01*
X34170Y-15487D01*
X34137Y-15438D01*
X34137Y-15438D01*
X29788Y-11088D01*
X29929Y-11088D01*
X32945Y-14104D01*
X33027Y-14159D01*
X33027Y-14159D01*
X33122Y-14178D01*
X36047Y-14178D01*
X36038Y-14253D01*
X36500Y-14714D01*
X36961Y-14253D01*
X36952Y-14178D01*
X37510Y-14178D01*
X37606Y-14275D01*
X37145Y-14275D01*
X37090Y-14297D01*
X37088Y-14298D01*
X36996Y-14288D01*
X36535Y-14750D01*
X36996Y-15211D01*
X37088Y-15201D01*
X37090Y-15202D01*
X37145Y-15225D01*
X37204Y-15225D01*
X37250Y-15225D01*
X37250Y-15275D01*
X37269Y-15370D01*
X37323Y-15451D01*
X39801Y-17930D01*
X39801Y-24159D01*
G54D10*
G36*
X54800Y-28841D02*
X54678Y-28547D01*
X54453Y-28322D01*
X54159Y-28200D01*
X53841Y-28199D01*
X53547Y-28321D01*
X53322Y-28546D01*
X53200Y-28840D01*
X53199Y-29158D01*
X53321Y-29452D01*
X53546Y-29677D01*
X53840Y-29799D01*
X53999Y-29800D01*
X50301Y-29800D01*
X50301Y-24847D01*
X50250Y-24721D01*
X50250Y-12601D01*
X50136Y-12325D01*
X49925Y-12114D01*
X49649Y-12000D01*
X49351Y-11999D01*
X49075Y-12113D01*
X48864Y-12324D01*
X48750Y-12600D01*
X48749Y-12898D01*
X48863Y-13174D01*
X49074Y-13385D01*
X49350Y-13499D01*
X49648Y-13500D01*
X49924Y-13386D01*
X50135Y-13175D01*
X50249Y-12899D01*
X50250Y-12601D01*
X50250Y-24721D01*
X50182Y-24552D01*
X50174Y-24541D01*
X50014Y-24520D01*
X49979Y-24556D01*
X49979Y-24485D01*
X49958Y-24325D01*
X49666Y-24201D01*
X49347Y-24198D01*
X49052Y-24317D01*
X49041Y-24325D01*
X49020Y-24485D01*
X49500Y-24964D01*
X49979Y-24485D01*
X49979Y-24556D01*
X49535Y-25000D01*
X50014Y-25479D01*
X50174Y-25458D01*
X50298Y-25166D01*
X50301Y-24847D01*
X50301Y-29800D01*
X50000Y-29800D01*
X50000Y-25900D01*
X49924Y-25717D01*
X49905Y-25698D01*
X49947Y-25682D01*
X49958Y-25674D01*
X49979Y-25514D01*
X49500Y-25035D01*
X49020Y-25514D01*
X49041Y-25674D01*
X49095Y-25697D01*
X49076Y-25716D01*
X49000Y-25900D01*
X49000Y-25900D01*
X48924Y-25717D01*
X48783Y-25576D01*
X48599Y-25500D01*
X48599Y-25500D01*
X48782Y-25424D01*
X48801Y-25405D01*
X48817Y-25447D01*
X48825Y-25458D01*
X48985Y-25479D01*
X49464Y-25000D01*
X48985Y-24520D01*
X48825Y-24541D01*
X48802Y-24595D01*
X48783Y-24576D01*
X48599Y-24500D01*
X48400Y-24499D01*
X48217Y-24575D01*
X48076Y-24716D01*
X48000Y-24900D01*
X48000Y-24900D01*
X47975Y-24840D01*
X47975Y-15104D01*
X47975Y-15045D01*
X47975Y-14395D01*
X47952Y-14340D01*
X47909Y-14297D01*
X47854Y-14275D01*
X47795Y-14275D01*
X47145Y-14275D01*
X47090Y-14297D01*
X47088Y-14298D01*
X46996Y-14288D01*
X46961Y-14324D01*
X46961Y-14253D01*
X46944Y-14096D01*
X46660Y-13976D01*
X46351Y-13973D01*
X46250Y-14015D01*
X46250Y-12601D01*
X46136Y-12325D01*
X45925Y-12114D01*
X45649Y-12000D01*
X45351Y-11999D01*
X45075Y-12113D01*
X44864Y-12324D01*
X44750Y-12600D01*
X44749Y-12898D01*
X44863Y-13174D01*
X45074Y-13385D01*
X45350Y-13499D01*
X45648Y-13500D01*
X45924Y-13386D01*
X46135Y-13175D01*
X46249Y-12899D01*
X46250Y-12601D01*
X46250Y-14015D01*
X46066Y-14089D01*
X46056Y-14096D01*
X46038Y-14253D01*
X46500Y-14714D01*
X46961Y-14253D01*
X46961Y-14324D01*
X46535Y-14750D01*
X46996Y-15211D01*
X47088Y-15201D01*
X47090Y-15202D01*
X47145Y-15225D01*
X47204Y-15225D01*
X47854Y-15225D01*
X47909Y-15202D01*
X47952Y-15159D01*
X47975Y-15104D01*
X47975Y-24840D01*
X47924Y-24717D01*
X47783Y-24576D01*
X47599Y-24500D01*
X47400Y-24499D01*
X47217Y-24575D01*
X47076Y-24716D01*
X47000Y-24900D01*
X47000Y-24900D01*
X46961Y-24806D01*
X46961Y-15246D01*
X46500Y-14785D01*
X46464Y-14820D01*
X46464Y-14750D01*
X46003Y-14288D01*
X45846Y-14306D01*
X45726Y-14589D01*
X45723Y-14898D01*
X45839Y-15183D01*
X45846Y-15194D01*
X46003Y-15211D01*
X46464Y-14750D01*
X46464Y-14820D01*
X46038Y-15246D01*
X46056Y-15403D01*
X46339Y-15523D01*
X46648Y-15526D01*
X46933Y-15410D01*
X46944Y-15403D01*
X46961Y-15246D01*
X46961Y-24806D01*
X46924Y-24717D01*
X46783Y-24576D01*
X46599Y-24500D01*
X46400Y-24499D01*
X46250Y-24562D01*
X46250Y-16601D01*
X46136Y-16325D01*
X45925Y-16114D01*
X45649Y-16000D01*
X45351Y-15999D01*
X45075Y-16113D01*
X44864Y-16324D01*
X44750Y-16600D01*
X44749Y-16898D01*
X44863Y-17174D01*
X45074Y-17385D01*
X45350Y-17499D01*
X45648Y-17500D01*
X45924Y-17386D01*
X46135Y-17175D01*
X46249Y-16899D01*
X46250Y-16601D01*
X46250Y-24562D01*
X46217Y-24575D01*
X46076Y-24716D01*
X46000Y-24900D01*
X46000Y-24900D01*
X45924Y-24717D01*
X45783Y-24576D01*
X45599Y-24500D01*
X45400Y-24499D01*
X45217Y-24575D01*
X45076Y-24716D01*
X45000Y-24900D01*
X44999Y-25099D01*
X45075Y-25282D01*
X45216Y-25423D01*
X45400Y-25499D01*
X45499Y-25500D01*
X45120Y-25500D01*
X45065Y-25522D01*
X45022Y-25565D01*
X45000Y-25620D01*
X45000Y-25679D01*
X45000Y-26134D01*
X42925Y-24059D01*
X42925Y-22109D01*
X42950Y-22084D01*
X43000Y-21965D01*
X43000Y-21835D01*
X42951Y-21716D01*
X42859Y-21624D01*
X42740Y-21575D01*
X42611Y-21575D01*
X42550Y-21600D01*
X42550Y-18615D01*
X42531Y-18519D01*
X42531Y-18519D01*
X42477Y-18438D01*
X40250Y-16211D01*
X40250Y-12601D01*
X40136Y-12325D01*
X39925Y-12114D01*
X39649Y-12000D01*
X39351Y-11999D01*
X39075Y-12113D01*
X38864Y-12324D01*
X38750Y-12600D01*
X38749Y-12898D01*
X38863Y-13174D01*
X39074Y-13385D01*
X39350Y-13499D01*
X39648Y-13500D01*
X39924Y-13386D01*
X40135Y-13175D01*
X40249Y-12899D01*
X40250Y-12601D01*
X40250Y-16211D01*
X37790Y-13751D01*
X37709Y-13697D01*
X37613Y-13678D01*
X36250Y-13678D01*
X36250Y-12601D01*
X36136Y-12325D01*
X35925Y-12114D01*
X35649Y-12000D01*
X35351Y-11999D01*
X35075Y-12113D01*
X34864Y-12324D01*
X34750Y-12600D01*
X34749Y-12898D01*
X34863Y-13174D01*
X35074Y-13385D01*
X35350Y-13499D01*
X35648Y-13500D01*
X35924Y-13386D01*
X36135Y-13175D01*
X36249Y-12899D01*
X36250Y-12601D01*
X36250Y-13678D01*
X33226Y-13678D01*
X30210Y-10662D01*
X30129Y-10607D01*
X30033Y-10588D01*
X24461Y-10588D01*
X24365Y-10607D01*
X24284Y-10662D01*
X23128Y-11817D01*
X23098Y-11805D01*
X22901Y-11804D01*
X22719Y-11880D01*
X22580Y-12019D01*
X22505Y-12201D01*
X22504Y-12398D01*
X22580Y-12580D01*
X22719Y-12719D01*
X22901Y-12794D01*
X23098Y-12795D01*
X23280Y-12719D01*
X23419Y-12580D01*
X23494Y-12398D01*
X23495Y-12201D01*
X23482Y-12171D01*
X24564Y-11088D01*
X27857Y-11088D01*
X23457Y-15488D01*
X23494Y-15398D01*
X23495Y-15201D01*
X23495Y-14201D01*
X23495Y-13201D01*
X23419Y-13019D01*
X23280Y-12880D01*
X23098Y-12805D01*
X22901Y-12804D01*
X22719Y-12880D01*
X22580Y-13019D01*
X22505Y-13201D01*
X22504Y-13398D01*
X22580Y-13580D01*
X22719Y-13719D01*
X22901Y-13794D01*
X23098Y-13795D01*
X23280Y-13719D01*
X23419Y-13580D01*
X23494Y-13398D01*
X23495Y-13201D01*
X23495Y-14201D01*
X23419Y-14019D01*
X23280Y-13880D01*
X23098Y-13805D01*
X22901Y-13804D01*
X22719Y-13880D01*
X22580Y-14019D01*
X22505Y-14201D01*
X22504Y-14398D01*
X22580Y-14580D01*
X22719Y-14719D01*
X22901Y-14794D01*
X23098Y-14795D01*
X23280Y-14719D01*
X23419Y-14580D01*
X23494Y-14398D01*
X23495Y-14201D01*
X23495Y-15201D01*
X23419Y-15019D01*
X23280Y-14880D01*
X23098Y-14805D01*
X22901Y-14804D01*
X22719Y-14880D01*
X22580Y-15019D01*
X22505Y-15201D01*
X22504Y-15398D01*
X22580Y-15580D01*
X22719Y-15719D01*
X22901Y-15794D01*
X23098Y-15795D01*
X23188Y-15757D01*
X23128Y-15817D01*
X23098Y-15805D01*
X22901Y-15804D01*
X22719Y-15880D01*
X22580Y-16019D01*
X22505Y-16201D01*
X22504Y-16398D01*
X22580Y-16580D01*
X22719Y-16719D01*
X22901Y-16794D01*
X23098Y-16795D01*
X23280Y-16719D01*
X23419Y-16580D01*
X23494Y-16398D01*
X23495Y-16201D01*
X23482Y-16171D01*
X27328Y-12324D01*
X27356Y-12391D01*
X27447Y-12483D01*
X27508Y-12508D01*
X23178Y-16838D01*
X23098Y-16805D01*
X22901Y-16804D01*
X22719Y-16880D01*
X22580Y-17019D01*
X22505Y-17201D01*
X22504Y-17398D01*
X22580Y-17580D01*
X22719Y-17719D01*
X22901Y-17794D01*
X23098Y-17795D01*
X23280Y-17719D01*
X23419Y-17580D01*
X23494Y-17398D01*
X23495Y-17228D01*
X28505Y-12218D01*
X28504Y-12398D01*
X28580Y-12580D01*
X28719Y-12719D01*
X28901Y-12794D01*
X29098Y-12795D01*
X29280Y-12719D01*
X29419Y-12580D01*
X29494Y-12398D01*
X29494Y-12351D01*
X32850Y-15707D01*
X32850Y-20797D01*
X29482Y-17428D01*
X29494Y-17398D01*
X29495Y-17201D01*
X29495Y-16201D01*
X29495Y-15201D01*
X29495Y-14201D01*
X29495Y-13201D01*
X29419Y-13019D01*
X29280Y-12880D01*
X29098Y-12805D01*
X28901Y-12804D01*
X28719Y-12880D01*
X28580Y-13019D01*
X28505Y-13201D01*
X28504Y-13398D01*
X28580Y-13580D01*
X28719Y-13719D01*
X28901Y-13794D01*
X29098Y-13795D01*
X29280Y-13719D01*
X29419Y-13580D01*
X29494Y-13398D01*
X29495Y-13201D01*
X29495Y-14201D01*
X29419Y-14019D01*
X29280Y-13880D01*
X29098Y-13805D01*
X28901Y-13804D01*
X28719Y-13880D01*
X28580Y-14019D01*
X28505Y-14201D01*
X28504Y-14398D01*
X28580Y-14580D01*
X28719Y-14719D01*
X28901Y-14794D01*
X29098Y-14795D01*
X29280Y-14719D01*
X29419Y-14580D01*
X29494Y-14398D01*
X29495Y-14201D01*
X29495Y-15201D01*
X29419Y-15019D01*
X29280Y-14880D01*
X29098Y-14805D01*
X28901Y-14804D01*
X28719Y-14880D01*
X28580Y-15019D01*
X28505Y-15201D01*
X28504Y-15398D01*
X28580Y-15580D01*
X28719Y-15719D01*
X28901Y-15794D01*
X29098Y-15795D01*
X29280Y-15719D01*
X29419Y-15580D01*
X29494Y-15398D01*
X29495Y-15201D01*
X29495Y-16201D01*
X29419Y-16019D01*
X29280Y-15880D01*
X29098Y-15805D01*
X28901Y-15804D01*
X28719Y-15880D01*
X28580Y-16019D01*
X28505Y-16201D01*
X28504Y-16398D01*
X28580Y-16580D01*
X28719Y-16719D01*
X28901Y-16794D01*
X29098Y-16795D01*
X29280Y-16719D01*
X29419Y-16580D01*
X29494Y-16398D01*
X29495Y-16201D01*
X29495Y-17201D01*
X29419Y-17019D01*
X29280Y-16880D01*
X29098Y-16805D01*
X28901Y-16804D01*
X28719Y-16880D01*
X28580Y-17019D01*
X28505Y-17201D01*
X28504Y-17398D01*
X28580Y-17580D01*
X28719Y-17719D01*
X28901Y-17794D01*
X29098Y-17795D01*
X29128Y-17782D01*
X29188Y-17842D01*
X29098Y-17805D01*
X28901Y-17804D01*
X28719Y-17880D01*
X28580Y-18019D01*
X28505Y-18201D01*
X28504Y-18398D01*
X28580Y-18580D01*
X28719Y-18719D01*
X28901Y-18794D01*
X29098Y-18795D01*
X29280Y-18719D01*
X29419Y-18580D01*
X29494Y-18398D01*
X29495Y-18201D01*
X29457Y-18111D01*
X32475Y-21129D01*
X32475Y-22636D01*
X32450Y-22661D01*
X32400Y-22781D01*
X32400Y-22910D01*
X32449Y-23030D01*
X32541Y-23121D01*
X32660Y-23171D01*
X32790Y-23171D01*
X32850Y-23146D01*
X32850Y-24315D01*
X32788Y-24253D01*
X32788Y-23838D01*
X32769Y-23743D01*
X32715Y-23662D01*
X29482Y-20428D01*
X29494Y-20398D01*
X29495Y-20201D01*
X29495Y-19201D01*
X29419Y-19019D01*
X29280Y-18880D01*
X29098Y-18805D01*
X28901Y-18804D01*
X28719Y-18880D01*
X28580Y-19019D01*
X28505Y-19201D01*
X28504Y-19398D01*
X28580Y-19580D01*
X28719Y-19719D01*
X28901Y-19794D01*
X29098Y-19795D01*
X29280Y-19719D01*
X29419Y-19580D01*
X29494Y-19398D01*
X29495Y-19201D01*
X29495Y-20201D01*
X29419Y-20019D01*
X29280Y-19880D01*
X29098Y-19805D01*
X28901Y-19804D01*
X28719Y-19880D01*
X28580Y-20019D01*
X28505Y-20201D01*
X28504Y-20398D01*
X28580Y-20580D01*
X28719Y-20719D01*
X28901Y-20794D01*
X29098Y-20795D01*
X29128Y-20782D01*
X29188Y-20842D01*
X29098Y-20805D01*
X28901Y-20804D01*
X28719Y-20880D01*
X28580Y-21019D01*
X28505Y-21201D01*
X28504Y-21398D01*
X28580Y-21580D01*
X28719Y-21719D01*
X28901Y-21794D01*
X29098Y-21795D01*
X29280Y-21719D01*
X29419Y-21580D01*
X29494Y-21398D01*
X29495Y-21201D01*
X29457Y-21111D01*
X32288Y-23942D01*
X32288Y-24356D01*
X32307Y-24452D01*
X32362Y-24533D01*
X34642Y-26814D01*
X33867Y-26814D01*
X29482Y-22428D01*
X29494Y-22398D01*
X29495Y-22201D01*
X29419Y-22019D01*
X29280Y-21880D01*
X29098Y-21805D01*
X28901Y-21804D01*
X28719Y-21880D01*
X28580Y-22019D01*
X28505Y-22201D01*
X28504Y-22398D01*
X28580Y-22580D01*
X28603Y-22602D01*
X28555Y-22622D01*
X28544Y-22629D01*
X28524Y-22789D01*
X29000Y-23264D01*
X29005Y-23259D01*
X29040Y-23294D01*
X29035Y-23300D01*
X29510Y-23775D01*
X29670Y-23755D01*
X29793Y-23464D01*
X29793Y-23447D01*
X33587Y-27241D01*
X33668Y-27295D01*
X33764Y-27314D01*
X39115Y-27314D01*
X39211Y-27295D01*
X39292Y-27241D01*
X40228Y-26304D01*
X40282Y-26223D01*
X40282Y-26223D01*
X40301Y-26127D01*
X40301Y-17827D01*
X40282Y-17731D01*
X40282Y-17731D01*
X40228Y-17650D01*
X37803Y-15225D01*
X37854Y-15225D01*
X37909Y-15202D01*
X37952Y-15159D01*
X37975Y-15104D01*
X37975Y-15045D01*
X37975Y-14643D01*
X42050Y-18718D01*
X42050Y-24212D01*
X42069Y-24308D01*
X42123Y-24389D01*
X44763Y-27029D01*
X44844Y-27083D01*
X44940Y-27102D01*
X48647Y-27102D01*
X48742Y-27083D01*
X48824Y-27029D01*
X49367Y-26486D01*
X49400Y-26499D01*
X49599Y-26500D01*
X49782Y-26424D01*
X49923Y-26283D01*
X49999Y-26099D01*
X50000Y-25900D01*
X50000Y-29800D01*
X29495Y-29800D01*
X29495Y-25201D01*
X29495Y-24201D01*
X29419Y-24019D01*
X29396Y-23997D01*
X29444Y-23977D01*
X29455Y-23970D01*
X29475Y-23810D01*
X29000Y-23335D01*
X28964Y-23370D01*
X28964Y-23300D01*
X28489Y-22824D01*
X28329Y-22844D01*
X28206Y-23135D01*
X28203Y-23451D01*
X28322Y-23744D01*
X28329Y-23755D01*
X28489Y-23775D01*
X28964Y-23300D01*
X28964Y-23370D01*
X28524Y-23810D01*
X28544Y-23970D01*
X28604Y-23995D01*
X28580Y-24019D01*
X28505Y-24201D01*
X28504Y-24398D01*
X28580Y-24580D01*
X28719Y-24719D01*
X28901Y-24794D01*
X29098Y-24795D01*
X29280Y-24719D01*
X29419Y-24580D01*
X29494Y-24398D01*
X29495Y-24201D01*
X29495Y-25201D01*
X29419Y-25019D01*
X29280Y-24880D01*
X29098Y-24805D01*
X28901Y-24804D01*
X28719Y-24880D01*
X28580Y-25019D01*
X28505Y-25201D01*
X28504Y-25398D01*
X28580Y-25580D01*
X28719Y-25719D01*
X28901Y-25794D01*
X29098Y-25795D01*
X29280Y-25719D01*
X29419Y-25580D01*
X29494Y-25398D01*
X29495Y-25201D01*
X29495Y-29800D01*
X29495Y-29800D01*
X29495Y-26629D01*
X29495Y-26570D01*
X29495Y-25970D01*
X29472Y-25915D01*
X29429Y-25872D01*
X29374Y-25850D01*
X29315Y-25850D01*
X28625Y-25850D01*
X28570Y-25872D01*
X28527Y-25915D01*
X28505Y-25970D01*
X28505Y-26029D01*
X28505Y-26629D01*
X28527Y-26684D01*
X28570Y-26727D01*
X28625Y-26750D01*
X28684Y-26750D01*
X29374Y-26750D01*
X29429Y-26727D01*
X29472Y-26684D01*
X29495Y-26629D01*
X29495Y-29800D01*
X27108Y-29800D01*
X27108Y-24910D01*
X27059Y-24791D01*
X27033Y-24765D01*
X27033Y-22083D01*
X27014Y-21987D01*
X26960Y-21906D01*
X23482Y-18428D01*
X23494Y-18398D01*
X23495Y-18201D01*
X23419Y-18019D01*
X23280Y-17880D01*
X23098Y-17805D01*
X22901Y-17804D01*
X22719Y-17880D01*
X22580Y-18019D01*
X22505Y-18201D01*
X22504Y-18398D01*
X22580Y-18580D01*
X22719Y-18719D01*
X22901Y-18794D01*
X23098Y-18795D01*
X23128Y-18782D01*
X23188Y-18842D01*
X23098Y-18805D01*
X22901Y-18804D01*
X22719Y-18880D01*
X22580Y-19019D01*
X22505Y-19201D01*
X22504Y-19398D01*
X22580Y-19580D01*
X22719Y-19719D01*
X22901Y-19794D01*
X23098Y-19795D01*
X23128Y-19782D01*
X23188Y-19842D01*
X23098Y-19805D01*
X22901Y-19804D01*
X22719Y-19880D01*
X22580Y-20019D01*
X22505Y-20201D01*
X22504Y-20398D01*
X22580Y-20580D01*
X22719Y-20719D01*
X22901Y-20794D01*
X23098Y-20795D01*
X23280Y-20719D01*
X23419Y-20580D01*
X23494Y-20398D01*
X23495Y-20201D01*
X23457Y-20111D01*
X25844Y-22498D01*
X25844Y-24694D01*
X25819Y-24719D01*
X25769Y-24839D01*
X25769Y-24968D01*
X25818Y-25088D01*
X25910Y-25179D01*
X26029Y-25229D01*
X26158Y-25229D01*
X26278Y-25180D01*
X26369Y-25088D01*
X26419Y-24969D01*
X26419Y-24839D01*
X26370Y-24720D01*
X26344Y-24694D01*
X26344Y-22394D01*
X26325Y-22298D01*
X26325Y-22298D01*
X26303Y-22266D01*
X26271Y-22217D01*
X26271Y-22217D01*
X23482Y-19428D01*
X23494Y-19398D01*
X23495Y-19201D01*
X23457Y-19111D01*
X26533Y-22186D01*
X26533Y-24765D01*
X26507Y-24790D01*
X26458Y-24910D01*
X26458Y-25039D01*
X26507Y-25158D01*
X26599Y-25250D01*
X26718Y-25299D01*
X26847Y-25300D01*
X26967Y-25250D01*
X27058Y-25159D01*
X27108Y-25039D01*
X27108Y-24910D01*
X27108Y-29800D01*
X23796Y-29800D01*
X23796Y-25148D01*
X23677Y-24855D01*
X23670Y-24844D01*
X23510Y-24824D01*
X23495Y-24840D01*
X23495Y-24201D01*
X23495Y-23201D01*
X23495Y-22201D01*
X23495Y-21201D01*
X23419Y-21019D01*
X23280Y-20880D01*
X23098Y-20805D01*
X22901Y-20804D01*
X22719Y-20880D01*
X22580Y-21019D01*
X22505Y-21201D01*
X22504Y-21398D01*
X22580Y-21580D01*
X22719Y-21719D01*
X22901Y-21794D01*
X23098Y-21795D01*
X23280Y-21719D01*
X23419Y-21580D01*
X23494Y-21398D01*
X23495Y-21201D01*
X23495Y-22201D01*
X23419Y-22019D01*
X23280Y-21880D01*
X23098Y-21805D01*
X22901Y-21804D01*
X22719Y-21880D01*
X22580Y-22019D01*
X22505Y-22201D01*
X22504Y-22398D01*
X22580Y-22580D01*
X22719Y-22719D01*
X22901Y-22794D01*
X23098Y-22795D01*
X23280Y-22719D01*
X23419Y-22580D01*
X23494Y-22398D01*
X23495Y-22201D01*
X23495Y-23201D01*
X23419Y-23019D01*
X23280Y-22880D01*
X23098Y-22805D01*
X22901Y-22804D01*
X22719Y-22880D01*
X22580Y-23019D01*
X22505Y-23201D01*
X22504Y-23398D01*
X22580Y-23580D01*
X22719Y-23719D01*
X22901Y-23794D01*
X23098Y-23795D01*
X23280Y-23719D01*
X23419Y-23580D01*
X23494Y-23398D01*
X23495Y-23201D01*
X23495Y-24201D01*
X23419Y-24019D01*
X23280Y-23880D01*
X23098Y-23805D01*
X22901Y-23804D01*
X22719Y-23880D01*
X22580Y-24019D01*
X22505Y-24201D01*
X22504Y-24398D01*
X22580Y-24580D01*
X22603Y-24602D01*
X22555Y-24622D01*
X22544Y-24629D01*
X22524Y-24789D01*
X23000Y-25264D01*
X23475Y-24789D01*
X23455Y-24629D01*
X23395Y-24604D01*
X23419Y-24580D01*
X23494Y-24398D01*
X23495Y-24201D01*
X23495Y-24840D01*
X23035Y-25300D01*
X23510Y-25775D01*
X23670Y-25755D01*
X23793Y-25464D01*
X23796Y-25148D01*
X23796Y-29800D01*
X23495Y-29800D01*
X23495Y-26201D01*
X23419Y-26019D01*
X23396Y-25997D01*
X23444Y-25977D01*
X23455Y-25970D01*
X23475Y-25810D01*
X23000Y-25335D01*
X22994Y-25340D01*
X22959Y-25305D01*
X22964Y-25300D01*
X22489Y-24824D01*
X22329Y-24844D01*
X22206Y-25135D01*
X22206Y-25152D01*
X18236Y-21182D01*
X18236Y-19872D01*
X18244Y-19881D01*
X18410Y-19949D01*
X18589Y-19950D01*
X18754Y-19881D01*
X18881Y-19755D01*
X18949Y-19589D01*
X18950Y-19410D01*
X18881Y-19245D01*
X18755Y-19118D01*
X18620Y-19062D01*
X18620Y-12061D01*
X18491Y-11749D01*
X18252Y-11509D01*
X17939Y-11380D01*
X17601Y-11379D01*
X17289Y-11508D01*
X17049Y-11747D01*
X16920Y-12060D01*
X16919Y-12398D01*
X17048Y-12710D01*
X17287Y-12950D01*
X17600Y-13079D01*
X17938Y-13080D01*
X18250Y-12951D01*
X18490Y-12712D01*
X18619Y-12399D01*
X18620Y-12061D01*
X18620Y-19062D01*
X18589Y-19050D01*
X18410Y-19049D01*
X18245Y-19118D01*
X18236Y-19127D01*
X18236Y-14606D01*
X18217Y-14510D01*
X18162Y-14429D01*
X16754Y-13020D01*
X16849Y-12789D01*
X16850Y-12451D01*
X16721Y-12139D01*
X16482Y-11899D01*
X16346Y-11843D01*
X16449Y-11740D01*
X16529Y-11545D01*
X16530Y-11335D01*
X16449Y-11140D01*
X16300Y-10990D01*
X16105Y-10910D01*
X15895Y-10909D01*
X15700Y-10990D01*
X15550Y-11139D01*
X15470Y-11334D01*
X15469Y-11544D01*
X15550Y-11739D01*
X15653Y-11843D01*
X15519Y-11898D01*
X15279Y-12137D01*
X15150Y-12450D01*
X15149Y-12788D01*
X15278Y-13100D01*
X15517Y-13340D01*
X15830Y-13469D01*
X16168Y-13470D01*
X16400Y-13374D01*
X17736Y-14709D01*
X17736Y-21286D01*
X17755Y-21381D01*
X17809Y-21462D01*
X22517Y-26171D01*
X22505Y-26201D01*
X22504Y-26398D01*
X22580Y-26580D01*
X22719Y-26719D01*
X22901Y-26794D01*
X23098Y-26795D01*
X23280Y-26719D01*
X23419Y-26580D01*
X23494Y-26398D01*
X23495Y-26201D01*
X23495Y-29800D01*
X17475Y-29800D01*
X17475Y-22115D01*
X17410Y-21959D01*
X17291Y-21839D01*
X17254Y-21824D01*
X17254Y-14755D01*
X17073Y-14292D01*
X17045Y-14251D01*
X16839Y-14176D01*
X16803Y-14211D01*
X16803Y-14140D01*
X16728Y-13934D01*
X16273Y-13735D01*
X15775Y-13725D01*
X15312Y-13906D01*
X15271Y-13934D01*
X15196Y-14140D01*
X16000Y-14944D01*
X16803Y-14140D01*
X16803Y-14211D01*
X16035Y-14980D01*
X16839Y-15783D01*
X17045Y-15708D01*
X17244Y-15253D01*
X17254Y-14755D01*
X17254Y-21824D01*
X17134Y-21775D01*
X16965Y-21774D01*
X16809Y-21839D01*
X16803Y-21845D01*
X16803Y-15819D01*
X16000Y-15015D01*
X15964Y-15050D01*
X15964Y-14980D01*
X15160Y-14176D01*
X15080Y-14205D01*
X15080Y-12061D01*
X14951Y-11749D01*
X14712Y-11509D01*
X14399Y-11380D01*
X14061Y-11379D01*
X13749Y-11508D01*
X13509Y-11747D01*
X13380Y-12060D01*
X13379Y-12398D01*
X13508Y-12710D01*
X13747Y-12950D01*
X14060Y-13079D01*
X14398Y-13080D01*
X14710Y-12951D01*
X14950Y-12712D01*
X15079Y-12399D01*
X15080Y-12061D01*
X15080Y-14205D01*
X14954Y-14251D01*
X14755Y-14706D01*
X14745Y-15204D01*
X14926Y-15667D01*
X14954Y-15708D01*
X15160Y-15783D01*
X15964Y-14980D01*
X15964Y-15050D01*
X15196Y-15819D01*
X15271Y-16025D01*
X15726Y-16224D01*
X16224Y-16234D01*
X16687Y-16053D01*
X16728Y-16025D01*
X16803Y-15819D01*
X16803Y-21845D01*
X16689Y-21958D01*
X16625Y-22115D01*
X16624Y-22271D01*
X15775Y-23120D01*
X15775Y-22059D01*
X15666Y-21792D01*
X15662Y-21785D01*
X15510Y-21774D01*
X15475Y-21810D01*
X15475Y-21739D01*
X15464Y-21587D01*
X15198Y-21475D01*
X14909Y-21474D01*
X14642Y-21583D01*
X14635Y-21587D01*
X14624Y-21739D01*
X15050Y-22164D01*
X15475Y-21739D01*
X15475Y-21810D01*
X15085Y-22200D01*
X15510Y-22625D01*
X15662Y-22614D01*
X15774Y-22348D01*
X15775Y-22059D01*
X15775Y-23120D01*
X15475Y-23421D01*
X15475Y-22660D01*
X15050Y-22235D01*
X15014Y-22270D01*
X15014Y-22200D01*
X14589Y-21774D01*
X14437Y-21785D01*
X14325Y-22051D01*
X14324Y-22340D01*
X14433Y-22607D01*
X14437Y-22614D01*
X14589Y-22625D01*
X15014Y-22200D01*
X15014Y-22270D01*
X14624Y-22660D01*
X14635Y-22812D01*
X14901Y-22924D01*
X15190Y-22925D01*
X15457Y-22816D01*
X15464Y-22812D01*
X15475Y-22660D01*
X15475Y-23421D01*
X14523Y-24373D01*
X14469Y-24454D01*
X14450Y-24550D01*
X14450Y-25366D01*
X14445Y-25368D01*
X14318Y-25494D01*
X14250Y-25660D01*
X14249Y-25839D01*
X14318Y-26004D01*
X14444Y-26131D01*
X14610Y-26199D01*
X14789Y-26200D01*
X14954Y-26131D01*
X15081Y-26005D01*
X15149Y-25839D01*
X15150Y-25660D01*
X15081Y-25495D01*
X14955Y-25368D01*
X14950Y-25366D01*
X14950Y-24653D01*
X16978Y-22624D01*
X17134Y-22625D01*
X17290Y-22560D01*
X17410Y-22441D01*
X17474Y-22284D01*
X17475Y-22115D01*
X17475Y-29800D01*
X16150Y-29800D01*
X16150Y-26079D01*
X16150Y-26020D01*
X16150Y-25420D01*
X16127Y-25365D01*
X16084Y-25322D01*
X16029Y-25300D01*
X15970Y-25300D01*
X15370Y-25300D01*
X15315Y-25322D01*
X15272Y-25365D01*
X15250Y-25420D01*
X15250Y-25479D01*
X15250Y-26079D01*
X15272Y-26134D01*
X15315Y-26177D01*
X15370Y-26200D01*
X15429Y-26200D01*
X16029Y-26200D01*
X16084Y-26177D01*
X16127Y-26134D01*
X16150Y-26079D01*
X16150Y-29800D01*
X13950Y-29800D01*
X13950Y-19410D01*
X13881Y-19245D01*
X13755Y-19118D01*
X13589Y-19050D01*
X13410Y-19049D01*
X13245Y-19118D01*
X13118Y-19244D01*
X13050Y-19410D01*
X13049Y-19589D01*
X13118Y-19754D01*
X13244Y-19881D01*
X13410Y-19949D01*
X13589Y-19950D01*
X13754Y-19881D01*
X13881Y-19755D01*
X13949Y-19589D01*
X13950Y-19410D01*
X13950Y-29800D01*
X11158Y-29800D01*
X11452Y-29678D01*
X11677Y-29453D01*
X11799Y-29159D01*
X11800Y-28841D01*
X11678Y-28547D01*
X11453Y-28322D01*
X11159Y-28200D01*
X10841Y-28199D01*
X10547Y-28321D01*
X10322Y-28546D01*
X10200Y-28840D01*
X10200Y-28999D01*
X10200Y-11158D01*
X10321Y-11452D01*
X10546Y-11677D01*
X10840Y-11799D01*
X11158Y-11800D01*
X11452Y-11678D01*
X11677Y-11453D01*
X11799Y-11159D01*
X11800Y-10841D01*
X11678Y-10547D01*
X11453Y-10322D01*
X11159Y-10200D01*
X11000Y-10200D01*
X53841Y-10200D01*
X53547Y-10321D01*
X53322Y-10546D01*
X53200Y-10840D01*
X53199Y-11158D01*
X53321Y-11452D01*
X53546Y-11677D01*
X53840Y-11799D01*
X54158Y-11800D01*
X54452Y-11678D01*
X54677Y-11453D01*
X54799Y-11159D01*
X54800Y-11000D01*
X54800Y-28841D01*
X54800Y-28841D01*
G37*
G54D27*
X54800Y-28841D02*
X54678Y-28547D01*
X54453Y-28322D01*
X54159Y-28200D01*
X53841Y-28199D01*
X53547Y-28321D01*
X53322Y-28546D01*
X53200Y-28840D01*
X53199Y-29158D01*
X53321Y-29452D01*
X53546Y-29677D01*
X53840Y-29799D01*
X53999Y-29800D01*
X50301Y-29800D01*
X50301Y-24847D01*
X50250Y-24721D01*
X50250Y-12601D01*
X50136Y-12325D01*
X49925Y-12114D01*
X49649Y-12000D01*
X49351Y-11999D01*
X49075Y-12113D01*
X48864Y-12324D01*
X48750Y-12600D01*
X48749Y-12898D01*
X48863Y-13174D01*
X49074Y-13385D01*
X49350Y-13499D01*
X49648Y-13500D01*
X49924Y-13386D01*
X50135Y-13175D01*
X50249Y-12899D01*
X50250Y-12601D01*
X50250Y-24721D01*
X50182Y-24552D01*
X50174Y-24541D01*
X50014Y-24520D01*
X49979Y-24556D01*
X49979Y-24485D01*
X49958Y-24325D01*
X49666Y-24201D01*
X49347Y-24198D01*
X49052Y-24317D01*
X49041Y-24325D01*
X49020Y-24485D01*
X49500Y-24964D01*
X49979Y-24485D01*
X49979Y-24556D01*
X49535Y-25000D01*
X50014Y-25479D01*
X50174Y-25458D01*
X50298Y-25166D01*
X50301Y-24847D01*
X50301Y-29800D01*
X50000Y-29800D01*
X50000Y-25900D01*
X49924Y-25717D01*
X49905Y-25698D01*
X49947Y-25682D01*
X49958Y-25674D01*
X49979Y-25514D01*
X49500Y-25035D01*
X49020Y-25514D01*
X49041Y-25674D01*
X49095Y-25697D01*
X49076Y-25716D01*
X49000Y-25900D01*
X49000Y-25900D01*
X48924Y-25717D01*
X48783Y-25576D01*
X48599Y-25500D01*
X48599Y-25500D01*
X48782Y-25424D01*
X48801Y-25405D01*
X48817Y-25447D01*
X48825Y-25458D01*
X48985Y-25479D01*
X49464Y-25000D01*
X48985Y-24520D01*
X48825Y-24541D01*
X48802Y-24595D01*
X48783Y-24576D01*
X48599Y-24500D01*
X48400Y-24499D01*
X48217Y-24575D01*
X48076Y-24716D01*
X48000Y-24900D01*
X48000Y-24900D01*
X47975Y-24840D01*
X47975Y-15104D01*
X47975Y-15045D01*
X47975Y-14395D01*
X47952Y-14340D01*
X47909Y-14297D01*
X47854Y-14275D01*
X47795Y-14275D01*
X47145Y-14275D01*
X47090Y-14297D01*
X47088Y-14298D01*
X46996Y-14288D01*
X46961Y-14324D01*
X46961Y-14253D01*
X46944Y-14096D01*
X46660Y-13976D01*
X46351Y-13973D01*
X46250Y-14015D01*
X46250Y-12601D01*
X46136Y-12325D01*
X45925Y-12114D01*
X45649Y-12000D01*
X45351Y-11999D01*
X45075Y-12113D01*
X44864Y-12324D01*
X44750Y-12600D01*
X44749Y-12898D01*
X44863Y-13174D01*
X45074Y-13385D01*
X45350Y-13499D01*
X45648Y-13500D01*
X45924Y-13386D01*
X46135Y-13175D01*
X46249Y-12899D01*
X46250Y-12601D01*
X46250Y-14015D01*
X46066Y-14089D01*
X46056Y-14096D01*
X46038Y-14253D01*
X46500Y-14714D01*
X46961Y-14253D01*
X46961Y-14324D01*
X46535Y-14750D01*
X46996Y-15211D01*
X47088Y-15201D01*
X47090Y-15202D01*
X47145Y-15225D01*
X47204Y-15225D01*
X47854Y-15225D01*
X47909Y-15202D01*
X47952Y-15159D01*
X47975Y-15104D01*
X47975Y-24840D01*
X47924Y-24717D01*
X47783Y-24576D01*
X47599Y-24500D01*
X47400Y-24499D01*
X47217Y-24575D01*
X47076Y-24716D01*
X47000Y-24900D01*
X47000Y-24900D01*
X46961Y-24806D01*
X46961Y-15246D01*
X46500Y-14785D01*
X46464Y-14820D01*
X46464Y-14750D01*
X46003Y-14288D01*
X45846Y-14306D01*
X45726Y-14589D01*
X45723Y-14898D01*
X45839Y-15183D01*
X45846Y-15194D01*
X46003Y-15211D01*
X46464Y-14750D01*
X46464Y-14820D01*
X46038Y-15246D01*
X46056Y-15403D01*
X46339Y-15523D01*
X46648Y-15526D01*
X46933Y-15410D01*
X46944Y-15403D01*
X46961Y-15246D01*
X46961Y-24806D01*
X46924Y-24717D01*
X46783Y-24576D01*
X46599Y-24500D01*
X46400Y-24499D01*
X46250Y-24562D01*
X46250Y-16601D01*
X46136Y-16325D01*
X45925Y-16114D01*
X45649Y-16000D01*
X45351Y-15999D01*
X45075Y-16113D01*
X44864Y-16324D01*
X44750Y-16600D01*
X44749Y-16898D01*
X44863Y-17174D01*
X45074Y-17385D01*
X45350Y-17499D01*
X45648Y-17500D01*
X45924Y-17386D01*
X46135Y-17175D01*
X46249Y-16899D01*
X46250Y-16601D01*
X46250Y-24562D01*
X46217Y-24575D01*
X46076Y-24716D01*
X46000Y-24900D01*
X46000Y-24900D01*
X45924Y-24717D01*
X45783Y-24576D01*
X45599Y-24500D01*
X45400Y-24499D01*
X45217Y-24575D01*
X45076Y-24716D01*
X45000Y-24900D01*
X44999Y-25099D01*
X45075Y-25282D01*
X45216Y-25423D01*
X45400Y-25499D01*
X45499Y-25500D01*
X45120Y-25500D01*
X45065Y-25522D01*
X45022Y-25565D01*
X45000Y-25620D01*
X45000Y-25679D01*
X45000Y-26134D01*
X42925Y-24059D01*
X42925Y-22109D01*
X42950Y-22084D01*
X43000Y-21965D01*
X43000Y-21835D01*
X42951Y-21716D01*
X42859Y-21624D01*
X42740Y-21575D01*
X42611Y-21575D01*
X42550Y-21600D01*
X42550Y-18615D01*
X42531Y-18519D01*
X42531Y-18519D01*
X42477Y-18438D01*
X40250Y-16211D01*
X40250Y-12601D01*
X40136Y-12325D01*
X39925Y-12114D01*
X39649Y-12000D01*
X39351Y-11999D01*
X39075Y-12113D01*
X38864Y-12324D01*
X38750Y-12600D01*
X38749Y-12898D01*
X38863Y-13174D01*
X39074Y-13385D01*
X39350Y-13499D01*
X39648Y-13500D01*
X39924Y-13386D01*
X40135Y-13175D01*
X40249Y-12899D01*
X40250Y-12601D01*
X40250Y-16211D01*
X37790Y-13751D01*
X37709Y-13697D01*
X37613Y-13678D01*
X36250Y-13678D01*
X36250Y-12601D01*
X36136Y-12325D01*
X35925Y-12114D01*
X35649Y-12000D01*
X35351Y-11999D01*
X35075Y-12113D01*
X34864Y-12324D01*
X34750Y-12600D01*
X34749Y-12898D01*
X34863Y-13174D01*
X35074Y-13385D01*
X35350Y-13499D01*
X35648Y-13500D01*
X35924Y-13386D01*
X36135Y-13175D01*
X36249Y-12899D01*
X36250Y-12601D01*
X36250Y-13678D01*
X33226Y-13678D01*
X30210Y-10662D01*
X30129Y-10607D01*
X30033Y-10588D01*
X24461Y-10588D01*
X24365Y-10607D01*
X24284Y-10662D01*
X23128Y-11817D01*
X23098Y-11805D01*
X22901Y-11804D01*
X22719Y-11880D01*
X22580Y-12019D01*
X22505Y-12201D01*
X22504Y-12398D01*
X22580Y-12580D01*
X22719Y-12719D01*
X22901Y-12794D01*
X23098Y-12795D01*
X23280Y-12719D01*
X23419Y-12580D01*
X23494Y-12398D01*
X23495Y-12201D01*
X23482Y-12171D01*
X24564Y-11088D01*
X27857Y-11088D01*
X23457Y-15488D01*
X23494Y-15398D01*
X23495Y-15201D01*
X23495Y-14201D01*
X23495Y-13201D01*
X23419Y-13019D01*
X23280Y-12880D01*
X23098Y-12805D01*
X22901Y-12804D01*
X22719Y-12880D01*
X22580Y-13019D01*
X22505Y-13201D01*
X22504Y-13398D01*
X22580Y-13580D01*
X22719Y-13719D01*
X22901Y-13794D01*
X23098Y-13795D01*
X23280Y-13719D01*
X23419Y-13580D01*
X23494Y-13398D01*
X23495Y-13201D01*
X23495Y-14201D01*
X23419Y-14019D01*
X23280Y-13880D01*
X23098Y-13805D01*
X22901Y-13804D01*
X22719Y-13880D01*
X22580Y-14019D01*
X22505Y-14201D01*
X22504Y-14398D01*
X22580Y-14580D01*
X22719Y-14719D01*
X22901Y-14794D01*
X23098Y-14795D01*
X23280Y-14719D01*
X23419Y-14580D01*
X23494Y-14398D01*
X23495Y-14201D01*
X23495Y-15201D01*
X23419Y-15019D01*
X23280Y-14880D01*
X23098Y-14805D01*
X22901Y-14804D01*
X22719Y-14880D01*
X22580Y-15019D01*
X22505Y-15201D01*
X22504Y-15398D01*
X22580Y-15580D01*
X22719Y-15719D01*
X22901Y-15794D01*
X23098Y-15795D01*
X23188Y-15757D01*
X23128Y-15817D01*
X23098Y-15805D01*
X22901Y-15804D01*
X22719Y-15880D01*
X22580Y-16019D01*
X22505Y-16201D01*
X22504Y-16398D01*
X22580Y-16580D01*
X22719Y-16719D01*
X22901Y-16794D01*
X23098Y-16795D01*
X23280Y-16719D01*
X23419Y-16580D01*
X23494Y-16398D01*
X23495Y-16201D01*
X23482Y-16171D01*
X27328Y-12324D01*
X27356Y-12391D01*
X27447Y-12483D01*
X27508Y-12508D01*
X23178Y-16838D01*
X23098Y-16805D01*
X22901Y-16804D01*
X22719Y-16880D01*
X22580Y-17019D01*
X22505Y-17201D01*
X22504Y-17398D01*
X22580Y-17580D01*
X22719Y-17719D01*
X22901Y-17794D01*
X23098Y-17795D01*
X23280Y-17719D01*
X23419Y-17580D01*
X23494Y-17398D01*
X23495Y-17228D01*
X28505Y-12218D01*
X28504Y-12398D01*
X28580Y-12580D01*
X28719Y-12719D01*
X28901Y-12794D01*
X29098Y-12795D01*
X29280Y-12719D01*
X29419Y-12580D01*
X29494Y-12398D01*
X29494Y-12351D01*
X32850Y-15707D01*
X32850Y-20797D01*
X29482Y-17428D01*
X29494Y-17398D01*
X29495Y-17201D01*
X29495Y-16201D01*
X29495Y-15201D01*
X29495Y-14201D01*
X29495Y-13201D01*
X29419Y-13019D01*
X29280Y-12880D01*
X29098Y-12805D01*
X28901Y-12804D01*
X28719Y-12880D01*
X28580Y-13019D01*
X28505Y-13201D01*
X28504Y-13398D01*
X28580Y-13580D01*
X28719Y-13719D01*
X28901Y-13794D01*
X29098Y-13795D01*
X29280Y-13719D01*
X29419Y-13580D01*
X29494Y-13398D01*
X29495Y-13201D01*
X29495Y-14201D01*
X29419Y-14019D01*
X29280Y-13880D01*
X29098Y-13805D01*
X28901Y-13804D01*
X28719Y-13880D01*
X28580Y-14019D01*
X28505Y-14201D01*
X28504Y-14398D01*
X28580Y-14580D01*
X28719Y-14719D01*
X28901Y-14794D01*
X29098Y-14795D01*
X29280Y-14719D01*
X29419Y-14580D01*
X29494Y-14398D01*
X29495Y-14201D01*
X29495Y-15201D01*
X29419Y-15019D01*
X29280Y-14880D01*
X29098Y-14805D01*
X28901Y-14804D01*
X28719Y-14880D01*
X28580Y-15019D01*
X28505Y-15201D01*
X28504Y-15398D01*
X28580Y-15580D01*
X28719Y-15719D01*
X28901Y-15794D01*
X29098Y-15795D01*
X29280Y-15719D01*
X29419Y-15580D01*
X29494Y-15398D01*
X29495Y-15201D01*
X29495Y-16201D01*
X29419Y-16019D01*
X29280Y-15880D01*
X29098Y-15805D01*
X28901Y-15804D01*
X28719Y-15880D01*
X28580Y-16019D01*
X28505Y-16201D01*
X28504Y-16398D01*
X28580Y-16580D01*
X28719Y-16719D01*
X28901Y-16794D01*
X29098Y-16795D01*
X29280Y-16719D01*
X29419Y-16580D01*
X29494Y-16398D01*
X29495Y-16201D01*
X29495Y-17201D01*
X29419Y-17019D01*
X29280Y-16880D01*
X29098Y-16805D01*
X28901Y-16804D01*
X28719Y-16880D01*
X28580Y-17019D01*
X28505Y-17201D01*
X28504Y-17398D01*
X28580Y-17580D01*
X28719Y-17719D01*
X28901Y-17794D01*
X29098Y-17795D01*
X29128Y-17782D01*
X29188Y-17842D01*
X29098Y-17805D01*
X28901Y-17804D01*
X28719Y-17880D01*
X28580Y-18019D01*
X28505Y-18201D01*
X28504Y-18398D01*
X28580Y-18580D01*
X28719Y-18719D01*
X28901Y-18794D01*
X29098Y-18795D01*
X29280Y-18719D01*
X29419Y-18580D01*
X29494Y-18398D01*
X29495Y-18201D01*
X29457Y-18111D01*
X32475Y-21129D01*
X32475Y-22636D01*
X32450Y-22661D01*
X32400Y-22781D01*
X32400Y-22910D01*
X32449Y-23030D01*
X32541Y-23121D01*
X32660Y-23171D01*
X32790Y-23171D01*
X32850Y-23146D01*
X32850Y-24315D01*
X32788Y-24253D01*
X32788Y-23838D01*
X32769Y-23743D01*
X32715Y-23662D01*
X29482Y-20428D01*
X29494Y-20398D01*
X29495Y-20201D01*
X29495Y-19201D01*
X29419Y-19019D01*
X29280Y-18880D01*
X29098Y-18805D01*
X28901Y-18804D01*
X28719Y-18880D01*
X28580Y-19019D01*
X28505Y-19201D01*
X28504Y-19398D01*
X28580Y-19580D01*
X28719Y-19719D01*
X28901Y-19794D01*
X29098Y-19795D01*
X29280Y-19719D01*
X29419Y-19580D01*
X29494Y-19398D01*
X29495Y-19201D01*
X29495Y-20201D01*
X29419Y-20019D01*
X29280Y-19880D01*
X29098Y-19805D01*
X28901Y-19804D01*
X28719Y-19880D01*
X28580Y-20019D01*
X28505Y-20201D01*
X28504Y-20398D01*
X28580Y-20580D01*
X28719Y-20719D01*
X28901Y-20794D01*
X29098Y-20795D01*
X29128Y-20782D01*
X29188Y-20842D01*
X29098Y-20805D01*
X28901Y-20804D01*
X28719Y-20880D01*
X28580Y-21019D01*
X28505Y-21201D01*
X28504Y-21398D01*
X28580Y-21580D01*
X28719Y-21719D01*
X28901Y-21794D01*
X29098Y-21795D01*
X29280Y-21719D01*
X29419Y-21580D01*
X29494Y-21398D01*
X29495Y-21201D01*
X29457Y-21111D01*
X32288Y-23942D01*
X32288Y-24356D01*
X32307Y-24452D01*
X32362Y-24533D01*
X34642Y-26814D01*
X33867Y-26814D01*
X29482Y-22428D01*
X29494Y-22398D01*
X29495Y-22201D01*
X29419Y-22019D01*
X29280Y-21880D01*
X29098Y-21805D01*
X28901Y-21804D01*
X28719Y-21880D01*
X28580Y-22019D01*
X28505Y-22201D01*
X28504Y-22398D01*
X28580Y-22580D01*
X28603Y-22602D01*
X28555Y-22622D01*
X28544Y-22629D01*
X28524Y-22789D01*
X29000Y-23264D01*
X29005Y-23259D01*
X29040Y-23294D01*
X29035Y-23300D01*
X29510Y-23775D01*
X29670Y-23755D01*
X29793Y-23464D01*
X29793Y-23447D01*
X33587Y-27241D01*
X33668Y-27295D01*
X33764Y-27314D01*
X39115Y-27314D01*
X39211Y-27295D01*
X39292Y-27241D01*
X40228Y-26304D01*
X40282Y-26223D01*
X40282Y-26223D01*
X40301Y-26127D01*
X40301Y-17827D01*
X40282Y-17731D01*
X40282Y-17731D01*
X40228Y-17650D01*
X37803Y-15225D01*
X37854Y-15225D01*
X37909Y-15202D01*
X37952Y-15159D01*
X37975Y-15104D01*
X37975Y-15045D01*
X37975Y-14643D01*
X42050Y-18718D01*
X42050Y-24212D01*
X42069Y-24308D01*
X42123Y-24389D01*
X44763Y-27029D01*
X44844Y-27083D01*
X44940Y-27102D01*
X48647Y-27102D01*
X48742Y-27083D01*
X48824Y-27029D01*
X49367Y-26486D01*
X49400Y-26499D01*
X49599Y-26500D01*
X49782Y-26424D01*
X49923Y-26283D01*
X49999Y-26099D01*
X50000Y-25900D01*
X50000Y-29800D01*
X29495Y-29800D01*
X29495Y-25201D01*
X29495Y-24201D01*
X29419Y-24019D01*
X29396Y-23997D01*
X29444Y-23977D01*
X29455Y-23970D01*
X29475Y-23810D01*
X29000Y-23335D01*
X28964Y-23370D01*
X28964Y-23300D01*
X28489Y-22824D01*
X28329Y-22844D01*
X28206Y-23135D01*
X28203Y-23451D01*
X28322Y-23744D01*
X28329Y-23755D01*
X28489Y-23775D01*
X28964Y-23300D01*
X28964Y-23370D01*
X28524Y-23810D01*
X28544Y-23970D01*
X28604Y-23995D01*
X28580Y-24019D01*
X28505Y-24201D01*
X28504Y-24398D01*
X28580Y-24580D01*
X28719Y-24719D01*
X28901Y-24794D01*
X29098Y-24795D01*
X29280Y-24719D01*
X29419Y-24580D01*
X29494Y-24398D01*
X29495Y-24201D01*
X29495Y-25201D01*
X29419Y-25019D01*
X29280Y-24880D01*
X29098Y-24805D01*
X28901Y-24804D01*
X28719Y-24880D01*
X28580Y-25019D01*
X28505Y-25201D01*
X28504Y-25398D01*
X28580Y-25580D01*
X28719Y-25719D01*
X28901Y-25794D01*
X29098Y-25795D01*
X29280Y-25719D01*
X29419Y-25580D01*
X29494Y-25398D01*
X29495Y-25201D01*
X29495Y-29800D01*
X29495Y-29800D01*
X29495Y-26629D01*
X29495Y-26570D01*
X29495Y-25970D01*
X29472Y-25915D01*
X29429Y-25872D01*
X29374Y-25850D01*
X29315Y-25850D01*
X28625Y-25850D01*
X28570Y-25872D01*
X28527Y-25915D01*
X28505Y-25970D01*
X28505Y-26029D01*
X28505Y-26629D01*
X28527Y-26684D01*
X28570Y-26727D01*
X28625Y-26750D01*
X28684Y-26750D01*
X29374Y-26750D01*
X29429Y-26727D01*
X29472Y-26684D01*
X29495Y-26629D01*
X29495Y-29800D01*
X27108Y-29800D01*
X27108Y-24910D01*
X27059Y-24791D01*
X27033Y-24765D01*
X27033Y-22083D01*
X27014Y-21987D01*
X26960Y-21906D01*
X23482Y-18428D01*
X23494Y-18398D01*
X23495Y-18201D01*
X23419Y-18019D01*
X23280Y-17880D01*
X23098Y-17805D01*
X22901Y-17804D01*
X22719Y-17880D01*
X22580Y-18019D01*
X22505Y-18201D01*
X22504Y-18398D01*
X22580Y-18580D01*
X22719Y-18719D01*
X22901Y-18794D01*
X23098Y-18795D01*
X23128Y-18782D01*
X23188Y-18842D01*
X23098Y-18805D01*
X22901Y-18804D01*
X22719Y-18880D01*
X22580Y-19019D01*
X22505Y-19201D01*
X22504Y-19398D01*
X22580Y-19580D01*
X22719Y-19719D01*
X22901Y-19794D01*
X23098Y-19795D01*
X23128Y-19782D01*
X23188Y-19842D01*
X23098Y-19805D01*
X22901Y-19804D01*
X22719Y-19880D01*
X22580Y-20019D01*
X22505Y-20201D01*
X22504Y-20398D01*
X22580Y-20580D01*
X22719Y-20719D01*
X22901Y-20794D01*
X23098Y-20795D01*
X23280Y-20719D01*
X23419Y-20580D01*
X23494Y-20398D01*
X23495Y-20201D01*
X23457Y-20111D01*
X25844Y-22498D01*
X25844Y-24694D01*
X25819Y-24719D01*
X25769Y-24839D01*
X25769Y-24968D01*
X25818Y-25088D01*
X25910Y-25179D01*
X26029Y-25229D01*
X26158Y-25229D01*
X26278Y-25180D01*
X26369Y-25088D01*
X26419Y-24969D01*
X26419Y-24839D01*
X26370Y-24720D01*
X26344Y-24694D01*
X26344Y-22394D01*
X26325Y-22298D01*
X26325Y-22298D01*
X26303Y-22266D01*
X26271Y-22217D01*
X26271Y-22217D01*
X23482Y-19428D01*
X23494Y-19398D01*
X23495Y-19201D01*
X23457Y-19111D01*
X26533Y-22186D01*
X26533Y-24765D01*
X26507Y-24790D01*
X26458Y-24910D01*
X26458Y-25039D01*
X26507Y-25158D01*
X26599Y-25250D01*
X26718Y-25299D01*
X26847Y-25300D01*
X26967Y-25250D01*
X27058Y-25159D01*
X27108Y-25039D01*
X27108Y-24910D01*
X27108Y-29800D01*
X23796Y-29800D01*
X23796Y-25148D01*
X23677Y-24855D01*
X23670Y-24844D01*
X23510Y-24824D01*
X23495Y-24840D01*
X23495Y-24201D01*
X23495Y-23201D01*
X23495Y-22201D01*
X23495Y-21201D01*
X23419Y-21019D01*
X23280Y-20880D01*
X23098Y-20805D01*
X22901Y-20804D01*
X22719Y-20880D01*
X22580Y-21019D01*
X22505Y-21201D01*
X22504Y-21398D01*
X22580Y-21580D01*
X22719Y-21719D01*
X22901Y-21794D01*
X23098Y-21795D01*
X23280Y-21719D01*
X23419Y-21580D01*
X23494Y-21398D01*
X23495Y-21201D01*
X23495Y-22201D01*
X23419Y-22019D01*
X23280Y-21880D01*
X23098Y-21805D01*
X22901Y-21804D01*
X22719Y-21880D01*
X22580Y-22019D01*
X22505Y-22201D01*
X22504Y-22398D01*
X22580Y-22580D01*
X22719Y-22719D01*
X22901Y-22794D01*
X23098Y-22795D01*
X23280Y-22719D01*
X23419Y-22580D01*
X23494Y-22398D01*
X23495Y-22201D01*
X23495Y-23201D01*
X23419Y-23019D01*
X23280Y-22880D01*
X23098Y-22805D01*
X22901Y-22804D01*
X22719Y-22880D01*
X22580Y-23019D01*
X22505Y-23201D01*
X22504Y-23398D01*
X22580Y-23580D01*
X22719Y-23719D01*
X22901Y-23794D01*
X23098Y-23795D01*
X23280Y-23719D01*
X23419Y-23580D01*
X23494Y-23398D01*
X23495Y-23201D01*
X23495Y-24201D01*
X23419Y-24019D01*
X23280Y-23880D01*
X23098Y-23805D01*
X22901Y-23804D01*
X22719Y-23880D01*
X22580Y-24019D01*
X22505Y-24201D01*
X22504Y-24398D01*
X22580Y-24580D01*
X22603Y-24602D01*
X22555Y-24622D01*
X22544Y-24629D01*
X22524Y-24789D01*
X23000Y-25264D01*
X23475Y-24789D01*
X23455Y-24629D01*
X23395Y-24604D01*
X23419Y-24580D01*
X23494Y-24398D01*
X23495Y-24201D01*
X23495Y-24840D01*
X23035Y-25300D01*
X23510Y-25775D01*
X23670Y-25755D01*
X23793Y-25464D01*
X23796Y-25148D01*
X23796Y-29800D01*
X23495Y-29800D01*
X23495Y-26201D01*
X23419Y-26019D01*
X23396Y-25997D01*
X23444Y-25977D01*
X23455Y-25970D01*
X23475Y-25810D01*
X23000Y-25335D01*
X22994Y-25340D01*
X22959Y-25305D01*
X22964Y-25300D01*
X22489Y-24824D01*
X22329Y-24844D01*
X22206Y-25135D01*
X22206Y-25152D01*
X18236Y-21182D01*
X18236Y-19872D01*
X18244Y-19881D01*
X18410Y-19949D01*
X18589Y-19950D01*
X18754Y-19881D01*
X18881Y-19755D01*
X18949Y-19589D01*
X18950Y-19410D01*
X18881Y-19245D01*
X18755Y-19118D01*
X18620Y-19062D01*
X18620Y-12061D01*
X18491Y-11749D01*
X18252Y-11509D01*
X17939Y-11380D01*
X17601Y-11379D01*
X17289Y-11508D01*
X17049Y-11747D01*
X16920Y-12060D01*
X16919Y-12398D01*
X17048Y-12710D01*
X17287Y-12950D01*
X17600Y-13079D01*
X17938Y-13080D01*
X18250Y-12951D01*
X18490Y-12712D01*
X18619Y-12399D01*
X18620Y-12061D01*
X18620Y-19062D01*
X18589Y-19050D01*
X18410Y-19049D01*
X18245Y-19118D01*
X18236Y-19127D01*
X18236Y-14606D01*
X18217Y-14510D01*
X18162Y-14429D01*
X16754Y-13020D01*
X16849Y-12789D01*
X16850Y-12451D01*
X16721Y-12139D01*
X16482Y-11899D01*
X16346Y-11843D01*
X16449Y-11740D01*
X16529Y-11545D01*
X16530Y-11335D01*
X16449Y-11140D01*
X16300Y-10990D01*
X16105Y-10910D01*
X15895Y-10909D01*
X15700Y-10990D01*
X15550Y-11139D01*
X15470Y-11334D01*
X15469Y-11544D01*
X15550Y-11739D01*
X15653Y-11843D01*
X15519Y-11898D01*
X15279Y-12137D01*
X15150Y-12450D01*
X15149Y-12788D01*
X15278Y-13100D01*
X15517Y-13340D01*
X15830Y-13469D01*
X16168Y-13470D01*
X16400Y-13374D01*
X17736Y-14709D01*
X17736Y-21286D01*
X17755Y-21381D01*
X17809Y-21462D01*
X22517Y-26171D01*
X22505Y-26201D01*
X22504Y-26398D01*
X22580Y-26580D01*
X22719Y-26719D01*
X22901Y-26794D01*
X23098Y-26795D01*
X23280Y-26719D01*
X23419Y-26580D01*
X23494Y-26398D01*
X23495Y-26201D01*
X23495Y-29800D01*
X17475Y-29800D01*
X17475Y-22115D01*
X17410Y-21959D01*
X17291Y-21839D01*
X17254Y-21824D01*
X17254Y-14755D01*
X17073Y-14292D01*
X17045Y-14251D01*
X16839Y-14176D01*
X16803Y-14211D01*
X16803Y-14140D01*
X16728Y-13934D01*
X16273Y-13735D01*
X15775Y-13725D01*
X15312Y-13906D01*
X15271Y-13934D01*
X15196Y-14140D01*
X16000Y-14944D01*
X16803Y-14140D01*
X16803Y-14211D01*
X16035Y-14980D01*
X16839Y-15783D01*
X17045Y-15708D01*
X17244Y-15253D01*
X17254Y-14755D01*
X17254Y-21824D01*
X17134Y-21775D01*
X16965Y-21774D01*
X16809Y-21839D01*
X16803Y-21845D01*
X16803Y-15819D01*
X16000Y-15015D01*
X15964Y-15050D01*
X15964Y-14980D01*
X15160Y-14176D01*
X15080Y-14205D01*
X15080Y-12061D01*
X14951Y-11749D01*
X14712Y-11509D01*
X14399Y-11380D01*
X14061Y-11379D01*
X13749Y-11508D01*
X13509Y-11747D01*
X13380Y-12060D01*
X13379Y-12398D01*
X13508Y-12710D01*
X13747Y-12950D01*
X14060Y-13079D01*
X14398Y-13080D01*
X14710Y-12951D01*
X14950Y-12712D01*
X15079Y-12399D01*
X15080Y-12061D01*
X15080Y-14205D01*
X14954Y-14251D01*
X14755Y-14706D01*
X14745Y-15204D01*
X14926Y-15667D01*
X14954Y-15708D01*
X15160Y-15783D01*
X15964Y-14980D01*
X15964Y-15050D01*
X15196Y-15819D01*
X15271Y-16025D01*
X15726Y-16224D01*
X16224Y-16234D01*
X16687Y-16053D01*
X16728Y-16025D01*
X16803Y-15819D01*
X16803Y-21845D01*
X16689Y-21958D01*
X16625Y-22115D01*
X16624Y-22271D01*
X15775Y-23120D01*
X15775Y-22059D01*
X15666Y-21792D01*
X15662Y-21785D01*
X15510Y-21774D01*
X15475Y-21810D01*
X15475Y-21739D01*
X15464Y-21587D01*
X15198Y-21475D01*
X14909Y-21474D01*
X14642Y-21583D01*
X14635Y-21587D01*
X14624Y-21739D01*
X15050Y-22164D01*
X15475Y-21739D01*
X15475Y-21810D01*
X15085Y-22200D01*
X15510Y-22625D01*
X15662Y-22614D01*
X15774Y-22348D01*
X15775Y-22059D01*
X15775Y-23120D01*
X15475Y-23421D01*
X15475Y-22660D01*
X15050Y-22235D01*
X15014Y-22270D01*
X15014Y-22200D01*
X14589Y-21774D01*
X14437Y-21785D01*
X14325Y-22051D01*
X14324Y-22340D01*
X14433Y-22607D01*
X14437Y-22614D01*
X14589Y-22625D01*
X15014Y-22200D01*
X15014Y-22270D01*
X14624Y-22660D01*
X14635Y-22812D01*
X14901Y-22924D01*
X15190Y-22925D01*
X15457Y-22816D01*
X15464Y-22812D01*
X15475Y-22660D01*
X15475Y-23421D01*
X14523Y-24373D01*
X14469Y-24454D01*
X14450Y-24550D01*
X14450Y-25366D01*
X14445Y-25368D01*
X14318Y-25494D01*
X14250Y-25660D01*
X14249Y-25839D01*
X14318Y-26004D01*
X14444Y-26131D01*
X14610Y-26199D01*
X14789Y-26200D01*
X14954Y-26131D01*
X15081Y-26005D01*
X15149Y-25839D01*
X15150Y-25660D01*
X15081Y-25495D01*
X14955Y-25368D01*
X14950Y-25366D01*
X14950Y-24653D01*
X16978Y-22624D01*
X17134Y-22625D01*
X17290Y-22560D01*
X17410Y-22441D01*
X17474Y-22284D01*
X17475Y-22115D01*
X17475Y-29800D01*
X16150Y-29800D01*
X16150Y-26079D01*
X16150Y-26020D01*
X16150Y-25420D01*
X16127Y-25365D01*
X16084Y-25322D01*
X16029Y-25300D01*
X15970Y-25300D01*
X15370Y-25300D01*
X15315Y-25322D01*
X15272Y-25365D01*
X15250Y-25420D01*
X15250Y-25479D01*
X15250Y-26079D01*
X15272Y-26134D01*
X15315Y-26177D01*
X15370Y-26200D01*
X15429Y-26200D01*
X16029Y-26200D01*
X16084Y-26177D01*
X16127Y-26134D01*
X16150Y-26079D01*
X16150Y-29800D01*
X13950Y-29800D01*
X13950Y-19410D01*
X13881Y-19245D01*
X13755Y-19118D01*
X13589Y-19050D01*
X13410Y-19049D01*
X13245Y-19118D01*
X13118Y-19244D01*
X13050Y-19410D01*
X13049Y-19589D01*
X13118Y-19754D01*
X13244Y-19881D01*
X13410Y-19949D01*
X13589Y-19950D01*
X13754Y-19881D01*
X13881Y-19755D01*
X13949Y-19589D01*
X13950Y-19410D01*
X13950Y-29800D01*
X11158Y-29800D01*
X11452Y-29678D01*
X11677Y-29453D01*
X11799Y-29159D01*
X11800Y-28841D01*
X11678Y-28547D01*
X11453Y-28322D01*
X11159Y-28200D01*
X10841Y-28199D01*
X10547Y-28321D01*
X10322Y-28546D01*
X10200Y-28840D01*
X10200Y-28999D01*
X10200Y-11158D01*
X10321Y-11452D01*
X10546Y-11677D01*
X10840Y-11799D01*
X11158Y-11800D01*
X11452Y-11678D01*
X11677Y-11453D01*
X11799Y-11159D01*
X11800Y-10841D01*
X11678Y-10547D01*
X11453Y-10322D01*
X11159Y-10200D01*
X11000Y-10200D01*
X53841Y-10200D01*
X53547Y-10321D01*
X53322Y-10546D01*
X53200Y-10840D01*
X53199Y-11158D01*
X53321Y-11452D01*
X53546Y-11677D01*
X53840Y-11799D01*
X54158Y-11800D01*
X54452Y-11678D01*
X54677Y-11453D01*
X54799Y-11159D01*
X54800Y-11000D01*
X54800Y-28841D01*
M02*
